<svg width="108" height="108" viewBox="0 0 108 108" fill="none" xmlns="http://www.w3.org/2000/svg">
<path d="M107.18 54.335C107.18 44.7101 104.612 35.2624 99.7467 26.9828C94.8812 18.7031 87.8968 11.8965 79.5259 7.27661C71.155 2.65673 61.706 0.393819 52.1697 0.725161C42.6334 1.0565 33.3611 3.96989 25.3252 9.15983L36.0784 26.1005C41.1008 22.8568 46.896 21.0359 52.8562 20.8288C58.8164 20.6218 64.722 22.0361 69.9538 24.9235C75.1856 27.8109 79.5509 32.0651 82.5918 37.2399C85.6328 42.4146 87.2374 48.3194 87.2374 54.335H107.18Z" fill="#CF95F2"/>
<path d="M25.3253 9.16016C16.9123 14.5937 10.1866 22.3076 5.91877 31.4183C1.6509 40.529 0.0134374 50.6681 1.19393 60.6741C2.37441 70.6802 6.32513 80.1484 12.5935 87.9944C18.8619 95.8404 27.1944 101.747 36.6367 105.037L43.1481 86.0238C37.2467 83.9675 32.0389 80.276 28.1211 75.3723C24.2034 70.4685 21.7342 64.5508 20.9964 58.2971C20.2586 52.0433 21.282 45.7064 23.9494 40.0122C26.6168 34.318 30.8204 29.4968 36.0785 26.1008L25.3253 9.16016Z" fill="#6A8AFF"/>
<path d="M36.6367 105.036C48.0526 109.014 60.4708 108.954 71.8482 104.865C83.2255 100.776 92.8841 92.9027 99.2348 82.5399L82.272 71.9629C78.3028 78.4396 72.2661 83.3605 65.1553 85.916C58.0445 88.4715 50.2831 88.5092 43.1482 86.023L36.6367 105.036Z" fill="#EDA460"/>
<path d="M99.2343 82.5413C104.428 74.0663 107.179 64.2996 107.179 54.3359H87.2371C87.2371 60.5632 85.5176 66.6674 82.2715 71.9643L99.2343 82.5413Z" fill="#F35DB7"/>
</svg>
