<svg width="77" height="77" viewBox="0 0 77 77" fill="none" xmlns="http://www.w3.org/2000/svg">
<g clip-path="url(#clip0_184_4225)">
<path d="M75.458 38.1644C75.458 32.9067 74.3693 27.7064 72.2607 22.8926L58.8926 28.7805C60.1882 31.7384 60.8572 34.9338 60.8572 38.1644H75.458Z" fill="#F35DB7"/>
<path d="M72.2603 22.8921C71.7508 21.7291 71.1835 20.5924 70.5605 19.4863L57.8477 26.6873C58.2305 27.3669 58.5791 28.0654 58.8921 28.78L72.2603 22.8921Z" fill="#EDA460"/>
<path d="M70.4259 19.3613C65.7928 11.3871 58.4226 5.37744 49.6927 2.45535C40.9629 -0.466737 31.4709 -0.101236 22.9908 3.48354C14.5106 7.06832 7.62258 13.6271 3.6141 21.9339C-0.394377 30.2408 -1.24902 39.7274 1.20991 48.6206C3.66883 57.5138 9.27304 65.2051 16.9751 70.257C24.6772 75.3089 33.9501 77.3756 43.0607 76.071C52.1713 74.7663 60.4962 70.1796 66.4794 63.1679C72.4626 56.1563 75.6947 47.1996 75.5717 37.9719L60.9721 38.1666C61.0477 43.8366 59.0617 49.3401 55.3853 53.6485C51.7089 57.9568 46.5936 60.7752 40.9955 61.5769C35.3974 62.3785 29.6996 61.1086 24.967 58.0044C20.2344 54.9003 16.7909 50.1743 15.28 44.7098C13.769 39.2453 14.2942 33.4162 16.7572 28.3119C19.2203 23.2077 23.4527 19.1776 28.6634 16.975C33.8741 14.7723 39.7065 14.5477 45.0706 16.3432C50.4347 18.1387 54.9634 21.8314 57.8103 26.7311L70.4259 19.3613Z" fill="#B869E8"/>
</g>
<defs>
<clipPath id="clip0_184_4225">
<rect width="77" height="77" fill="white"/>
</clipPath>
</defs>
</svg>
