<svg width="22" height="17" viewBox="0 0 22 17" fill="none" xmlns="http://www.w3.org/2000/svg">
<path d="M19.2752 2.52667C17.7615 1.24667 15.945 0.606667 14.0275 0.5L13.7248 0.82C15.4404 1.24667 16.9541 2.1 18.367 3.27333C16.6514 2.31333 14.7339 1.67333 12.7156 1.46C12.1101 1.35333 11.6055 1.35333 11 1.35333C10.3945 1.35333 9.88991 1.35333 9.2844 1.46C7.26606 1.67333 5.34862 2.31333 3.63303 3.27333C5.04587 2.1 6.55963 1.24667 8.27523 0.82L7.97248 0.5C6.05505 0.606667 4.23853 1.24667 2.72477 2.52667C1.00917 5.94 0.100917 9.78 0 13.7267C1.51376 15.4333 3.63303 16.5 5.85321 16.5C5.85321 16.5 6.55963 15.6467 7.06422 14.9C5.75229 14.58 4.54128 13.8333 3.73395 12.66C4.44037 13.0867 5.14679 13.5133 5.85321 13.8333C6.76147 14.26 7.66972 14.4733 8.57798 14.6867C9.38532 14.7933 10.1927 14.9 11 14.9C11.8073 14.9 12.6147 14.7933 13.422 14.6867C14.3303 14.4733 15.2385 14.26 16.1468 13.8333C16.8532 13.5133 17.5596 13.0867 18.2661 12.66C17.4587 13.8333 16.2477 14.58 14.9358 14.9C15.4404 15.6467 16.1468 16.5 16.1468 16.5C18.367 16.5 20.4862 15.4333 22 13.7267C21.8991 9.78 20.9908 5.94 19.2752 2.52667ZM7.66972 11.8067C6.66055 11.8067 5.75229 10.8467 5.75229 9.67333C5.75229 8.5 6.66055 7.54 7.66972 7.54C8.6789 7.54 9.58716 8.5 9.58716 9.67333C9.58716 10.8467 8.6789 11.8067 7.66972 11.8067ZM14.3303 11.8067C13.3211 11.8067 12.4128 10.8467 12.4128 9.67333C12.4128 8.5 13.3211 7.54 14.3303 7.54C15.3394 7.54 16.2477 8.5 16.2477 9.67333C16.2477 10.8467 15.3394 11.8067 14.3303 11.8067Z" fill="#6A6A6A"/>
</svg>
