<svg width="24" height="24" viewBox="0 0 24 24" fill="none" xmlns="http://www.w3.org/2000/svg">
<path d="M8.49961 5.09998L11.1996 7.79998C11.5996 8.19998 12.3996 8.19998 12.7996 7.79998L15.4996 5.09998C16.1996 4.39998 15.6996 3.09998 14.6996 3.09998H9.29961C8.29961 3.19998 7.79961 4.39998 8.49961 5.09998ZM8.49961 18.9L11.1996 16.2C11.5996 15.8 12.3996 15.8 12.7996 16.2L15.4996 18.9C16.1996 19.6 15.6996 20.9 14.6996 20.9H9.29961C8.29961 20.8 7.79961 19.6 8.49961 18.9ZM2.19961 11.5L4.39961 7.99998C4.69961 7.39998 5.49961 7.29998 5.99961 7.79998L9.49961 11.3C9.89961 11.7 9.89961 12.3 9.49961 12.7L5.99961 16.2C5.49961 16.7 4.79961 16.6 4.39961 16L2.19961 12.5C1.89961 12.2 1.89961 11.8 2.19961 11.5ZM21.7996 11.5L19.5996 7.99998C19.2996 7.49998 18.4996 7.39998 17.9996 7.79998L14.4996 11.3C14.0996 11.7 14.0996 12.3 14.4996 12.7L17.9996 16.2C18.4996 16.7 19.1996 16.6 19.5996 16L21.7996 12.5C22.0996 12.2 22.0996 11.8 21.7996 11.5V11.5Z" stroke="white" stroke-width="1.5" stroke-miterlimit="10" stroke-linecap="round" stroke-linejoin="round"/>
</svg>
