<svg width="22" height="15" viewBox="0 0 22 15" fill="none" xmlns="http://www.w3.org/2000/svg">
<path d="M1.66992 13.95L6.59992 10.64C7.38992 10.11 8.52992 10.17 9.23992 10.78L9.56992 11.07C10.3499 11.74 11.6099 11.74 12.3899 11.07L16.5499 7.5C17.3299 6.83 18.5899 6.83 19.3699 7.5L20.9999 8.9M7.99992 5C8.53035 5 9.03906 4.78929 9.41413 4.41421C9.78921 4.03914 9.99992 3.53043 9.99992 3C9.99992 2.46957 9.78921 1.96086 9.41413 1.58579C9.03906 1.21071 8.53035 1 7.99992 1C7.46949 1 6.96078 1.21071 6.58571 1.58579C6.21064 1.96086 5.99992 2.46957 5.99992 3C5.99992 3.53043 6.21064 4.03914 6.58571 4.41421C6.96078 4.78929 7.46949 5 7.99992 5Z" stroke="white" stroke-width="1.5" stroke-linecap="round" stroke-linejoin="round"/>
</svg>
