<svg width="114" height="120" viewBox="0 0 114 120" fill="none" xmlns="http://www.w3.org/2000/svg">
<g opacity="0.16">
<path opacity="0.038" d="M61.7747 93.5451C82.5123 93.5451 99.3234 86.4614 99.3234 77.7232C99.3234 68.9851 82.5123 61.9014 61.7747 61.9014C41.0372 61.9014 24.2261 68.9851 24.2261 77.7232C24.2261 86.4614 41.0372 93.5451 61.7747 93.5451Z" fill="#4A0101"/>
<path opacity="0.077" d="M61.7742 93.1327C81.9654 93.1327 98.3336 86.2334 98.3336 77.7226C98.3336 69.2118 81.9654 62.3125 61.7742 62.3125C41.583 62.3125 25.2148 69.2118 25.2148 77.7226C25.2148 86.2334 41.583 93.1327 61.7742 93.1327Z" fill="#480202"/>
<path opacity="0.115" d="M61.7742 92.7126C81.4142 92.7126 97.3356 86.0015 97.3356 77.723C97.3356 69.4445 81.4142 62.7334 61.7742 62.7334C42.1343 62.7334 26.2129 69.4445 26.2129 77.723C26.2129 86.0015 42.1343 92.7126 61.7742 92.7126Z" fill="#460303"/>
<path opacity="0.154" d="M61.7747 92.2915C80.8683 92.2915 96.3468 85.7687 96.3468 77.7224C96.3468 69.6761 80.8683 63.1533 61.7747 63.1533C42.6811 63.1533 27.2026 69.6761 27.2026 77.7224C27.2026 85.7687 42.6811 92.2915 61.7747 92.2915Z" fill="#440404"/>
<path opacity="0.192" d="M61.7747 91.8713C80.322 91.8713 95.3575 85.5368 95.3575 77.7228C95.3575 69.9087 80.322 63.5742 61.7747 63.5742C43.2274 63.5742 28.1919 69.9087 28.1919 77.7228C28.1919 85.5368 43.2274 91.8713 61.7747 91.8713Z" fill="#420505"/>
<path opacity="0.231" d="M61.7747 91.46C79.7708 91.46 94.3595 85.3098 94.3595 77.7231C94.3595 70.1365 79.7708 63.9863 61.7747 63.9863C43.7786 63.9863 29.1899 70.1365 29.1899 77.7231C29.1899 85.3098 43.7786 91.46 61.7747 91.46Z" fill="#400606"/>
<path opacity="0.269" d="M61.7752 91.0398C79.2249 91.0398 93.3707 85.0779 93.3707 77.7235C93.3707 70.3691 79.2249 64.4072 61.7752 64.4072C44.3255 64.4072 30.1797 70.3691 30.1797 77.7235C30.1797 85.0779 44.3255 91.0398 61.7752 91.0398Z" fill="#3E0606"/>
<path opacity="0.308" d="M61.7752 90.6187C78.6737 90.6187 92.3727 84.8451 92.3727 77.7229C92.3727 70.6008 78.6737 64.8271 61.7752 64.8271C44.8767 64.8271 31.1777 70.6008 31.1777 77.7229C31.1777 84.8451 44.8767 90.6187 61.7752 90.6187Z" fill="#3C0707"/>
<path opacity="0.346" d="M61.7747 90.1986C78.1269 90.1986 91.3829 84.6132 91.3829 77.7233C91.3829 70.8334 78.1269 65.248 61.7747 65.248C45.4225 65.248 32.1665 70.8334 32.1665 77.7233C32.1665 84.6132 45.4225 90.1986 61.7747 90.1986Z" fill="#3A0808"/>
<path opacity="0.385" d="M61.7742 89.7862C77.58 89.7862 90.3931 84.3852 90.3931 77.7227C90.3931 71.0602 77.58 65.6592 61.7742 65.6592C45.9684 65.6592 33.1553 71.0602 33.1553 77.7227C33.1553 84.3852 45.9684 89.7862 61.7742 89.7862Z" fill="#380909"/>
<path opacity="0.423" d="M61.7742 89.3661C77.0288 89.3661 89.3951 84.1533 89.3951 77.7231C89.3951 71.2928 77.0288 66.0801 61.7742 66.0801C46.5196 66.0801 34.1533 71.2928 34.1533 77.7231C34.1533 84.1533 46.5196 89.3661 61.7742 89.3661Z" fill="#360A0A"/>
<path opacity="0.462" d="M61.7747 88.945C76.4829 88.945 88.4063 83.9205 88.4063 77.7225C88.4063 71.5245 76.4829 66.5 61.7747 66.5C47.0665 66.5 35.1431 71.5245 35.1431 77.7225C35.1431 83.9205 47.0665 88.945 61.7747 88.945Z" fill="#340B0B"/>
<path opacity="0.5" d="M61.7747 88.5248C75.9317 88.5248 87.4083 83.6886 87.4083 77.7229C87.4083 71.7571 75.9317 66.9209 61.7747 66.9209C47.6177 66.9209 36.1411 71.7571 36.1411 77.7229C36.1411 83.6886 47.6177 88.5248 61.7747 88.5248Z" fill="#330C0C"/>
<path opacity="0.538" d="M61.7742 88.1134C75.3849 88.1134 86.4185 83.4616 86.4185 77.7232C86.4185 71.9849 75.3849 67.333 61.7742 67.333C48.1635 67.333 37.1299 71.9849 37.1299 77.7232C37.1299 83.4616 48.1635 88.1134 61.7742 88.1134Z" fill="#310D0D"/>
<path opacity="0.577" d="M61.7737 87.6933C74.838 87.6933 85.4287 83.2297 85.4287 77.7236C85.4287 72.2175 74.838 67.7539 61.7737 67.7539C48.7094 67.7539 38.1187 72.2175 38.1187 77.7236C38.1187 83.2297 48.7094 87.6933 61.7737 87.6933Z" fill="#2F0E0E"/>
<path opacity="0.615" d="M61.7737 87.2722C74.2868 87.2722 84.4307 82.9969 84.4307 77.723C84.4307 72.4491 74.2868 68.1738 61.7737 68.1738C49.2606 68.1738 39.1167 72.4491 39.1167 77.723C39.1167 82.9969 49.2606 87.2722 61.7737 87.2722Z" fill="#2D0F0F"/>
<path opacity="0.654" d="M61.7742 86.8521C73.7409 86.8521 83.4419 82.765 83.4419 77.7234C83.4419 72.6818 73.7409 68.5947 61.7742 68.5947C49.8074 68.5947 40.1064 72.6818 40.1064 77.7234C40.1064 82.765 49.8074 86.8521 61.7742 86.8521Z" fill="#2B1010"/>
<path opacity="0.692" d="M61.7747 86.4397C73.1903 86.4397 82.4444 82.537 82.4444 77.7228C82.4444 72.9086 73.1903 69.0059 61.7747 69.0059C50.3591 69.0059 41.105 72.9086 41.105 77.7228C41.105 82.537 50.3591 86.4397 61.7747 86.4397Z" fill="#291111"/>
<path opacity="0.731" d="M61.7742 86.0196C72.6434 86.0196 81.4546 82.3051 81.4546 77.7232C81.4546 73.1412 72.6434 69.4268 61.7742 69.4268C50.905 69.4268 42.0938 73.1412 42.0938 77.7232C42.0938 82.3051 50.905 86.0196 61.7742 86.0196Z" fill="#271212"/>
<path opacity="0.769" d="M61.7746 85.5994C72.0975 85.5994 80.4658 82.0733 80.4658 77.7235C80.4658 73.3738 72.0975 69.8477 61.7746 69.8477C51.4518 69.8477 43.0835 73.3738 43.0835 77.7235C43.0835 82.0733 51.4518 85.5994 61.7746 85.5994Z" fill="#251212"/>
<path opacity="0.808" d="M61.7732 85.1783C71.5449 85.1783 79.4663 81.8404 79.4663 77.7229C79.4663 73.6055 71.5449 70.2676 61.7732 70.2676C52.0016 70.2676 44.0801 73.6055 44.0801 77.7229C44.0801 81.8404 52.0016 85.1783 61.7732 85.1783Z" fill="#231313"/>
<path opacity="0.846" d="M61.7742 84.7582C70.9994 84.7582 78.478 81.6086 78.478 77.7233C78.478 73.8381 70.9994 70.6885 61.7742 70.6885C52.5489 70.6885 45.0703 73.8381 45.0703 77.7233C45.0703 81.6086 52.5489 84.7582 61.7742 84.7582Z" fill="#211414"/>
<path opacity="0.885" d="M61.7742 84.3468C70.4483 84.3468 77.48 81.3815 77.48 77.7237C77.48 74.0658 70.4483 71.1006 61.7742 71.1006C53.1001 71.1006 46.0684 74.0658 46.0684 77.7237C46.0684 81.3815 53.1001 84.3468 61.7742 84.3468Z" fill="#1F1515"/>
<path opacity="0.923" d="M61.7737 83.9257C69.9014 83.9257 76.4902 81.1487 76.4902 77.7231C76.4902 74.2975 69.9014 71.5205 61.7737 71.5205C53.646 71.5205 47.0571 74.2975 47.0571 77.7231C47.0571 81.1487 53.646 83.9257 61.7737 83.9257Z" fill="#1D1616"/>
<path opacity="0.962" d="M61.7737 83.5056C69.3502 83.5056 75.4922 80.9168 75.4922 77.7235C75.4922 74.5301 69.3502 71.9414 61.7737 71.9414C54.1972 71.9414 48.0552 74.5301 48.0552 77.7235C48.0552 80.9168 54.1972 83.5056 61.7737 83.5056Z" fill="#1B1717"/>
<path d="M61.7732 83.0854C68.8034 83.0854 74.5024 80.685 74.5024 77.7239C74.5024 74.7628 68.8034 72.3623 61.7732 72.3623C54.743 72.3623 49.0439 74.7628 49.0439 77.7239C49.0439 80.685 54.743 83.0854 61.7732 83.0854Z" fill="#191818"/>
</g>
<g opacity="0.23">
<path opacity="0.038" d="M75.2025 36.6369C95.94 36.6369 112.751 31.3144 112.751 24.7486C112.751 18.1829 95.94 12.8604 75.2025 12.8604C54.4649 12.8604 37.6538 18.1829 37.6538 24.7486C37.6538 31.3144 54.4649 36.6369 75.2025 36.6369Z" fill="#4A0101"/>
<path opacity="0.077" d="M75.202 36.3303C95.3931 36.3303 111.761 31.145 111.761 24.7487C111.761 18.3523 95.3931 13.167 75.202 13.167C55.0108 13.167 38.6426 18.3523 38.6426 24.7487C38.6426 31.145 55.0108 36.3303 75.202 36.3303Z" fill="#480202"/>
<path opacity="0.115" d="M75.202 36.015C94.842 36.015 110.763 30.9709 110.763 24.7487C110.763 18.5265 94.842 13.4824 75.202 13.4824C55.562 13.4824 39.6406 18.5265 39.6406 24.7487C39.6406 30.9709 55.562 36.015 75.202 36.015Z" fill="#460303"/>
<path opacity="0.154" d="M75.2024 35.6997C94.2961 35.6997 109.774 30.7968 109.774 24.7488C109.774 18.7007 94.2961 13.7979 75.2024 13.7979C56.1088 13.7979 40.6304 18.7007 40.6304 24.7488C40.6304 30.7968 56.1088 35.6997 75.2024 35.6997Z" fill="#440404"/>
<path opacity="0.192" d="M75.2024 35.3843C93.7497 35.3843 108.785 30.6226 108.785 24.7488C108.785 18.875 93.7497 14.1133 75.2024 14.1133C56.6552 14.1133 41.6196 18.875 41.6196 24.7488C41.6196 30.6226 56.6552 35.3843 75.2024 35.3843Z" fill="#420505"/>
<path opacity="0.231" d="M75.2025 35.069C93.1985 35.069 107.787 30.4485 107.787 24.7488C107.787 19.0492 93.1985 14.4287 75.2025 14.4287C57.2064 14.4287 42.6177 19.0492 42.6177 24.7488C42.6177 30.4485 57.2064 35.069 75.2025 35.069Z" fill="#400606"/>
<path opacity="0.269" d="M75.2029 34.7536C92.6526 34.7536 106.798 30.2743 106.798 24.7489C106.798 19.2234 92.6526 14.7441 75.2029 14.7441C57.7532 14.7441 43.6074 19.2234 43.6074 24.7489C43.6074 30.2743 57.7532 34.7536 75.2029 34.7536Z" fill="#3E0606"/>
<path opacity="0.308" d="M75.2029 34.4383C92.1014 34.4383 105.8 30.1002 105.8 24.7489C105.8 19.3976 92.1014 15.0596 75.2029 15.0596C58.3044 15.0596 44.6055 19.3976 44.6055 24.7489C44.6055 30.1002 58.3044 34.4383 75.2029 34.4383Z" fill="#3C0707"/>
<path opacity="0.346" d="M75.2024 34.1229C91.5546 34.1229 104.811 29.9261 104.811 24.749C104.811 19.5719 91.5546 15.375 75.2024 15.375C58.8503 15.375 45.5942 19.5719 45.5942 24.749C45.5942 29.9261 58.8503 34.1229 75.2024 34.1229Z" fill="#3A0808"/>
<path opacity="0.385" d="M75.2019 33.8076C91.0077 33.8076 103.821 29.7519 103.821 24.749C103.821 19.7461 91.0077 15.6904 75.2019 15.6904C59.3961 15.6904 46.583 19.7461 46.583 24.749C46.583 29.7519 59.3961 33.8076 75.2019 33.8076Z" fill="#380909"/>
<path opacity="0.423" d="M75.2019 33.501C90.4565 33.501 102.823 29.5826 102.823 24.749C102.823 19.9155 90.4565 15.9971 75.2019 15.9971C59.9473 15.9971 47.5811 19.9155 47.5811 24.749C47.5811 29.5826 59.9473 33.501 75.2019 33.501Z" fill="#360A0A"/>
<path opacity="0.462" d="M75.2024 33.1856C89.9107 33.1856 101.834 29.4085 101.834 24.7491C101.834 20.0897 89.9107 16.3125 75.2024 16.3125C60.4942 16.3125 48.5708 20.0897 48.5708 24.7491C48.5708 29.4085 60.4942 33.1856 75.2024 33.1856Z" fill="#340B0B"/>
<path opacity="0.5" d="M75.2024 32.8703C89.3595 32.8703 100.836 29.2343 100.836 24.7491C100.836 20.2639 89.3595 16.6279 75.2024 16.6279C61.0454 16.6279 49.5688 20.2639 49.5688 24.7491C49.5688 29.2343 61.0454 32.8703 75.2024 32.8703Z" fill="#330C0C"/>
<path opacity="0.538" d="M75.2024 32.555C88.8131 32.555 99.8467 29.0602 99.8467 24.7492C99.8467 20.4381 88.8131 16.9434 75.2024 16.9434C61.5917 16.9434 50.5581 20.4381 50.5581 24.7492C50.5581 29.0602 61.5917 32.555 75.2024 32.555Z" fill="#310D0D"/>
<path opacity="0.577" d="M75.2029 32.2396C88.2672 32.2396 98.8579 28.886 98.8579 24.7492C98.8579 20.6124 88.2672 17.2588 75.2029 17.2588C62.1386 17.2588 51.5479 20.6124 51.5479 24.7492C51.5479 28.886 62.1386 32.2396 75.2029 32.2396Z" fill="#2F0E0E"/>
<path opacity="0.615" d="M75.2029 31.9243C87.716 31.9243 97.8599 28.7119 97.8599 24.7493C97.8599 20.7866 87.716 17.5742 75.2029 17.5742C62.6898 17.5742 52.5459 20.7866 52.5459 24.7493C52.5459 28.7119 62.6898 31.9243 75.2029 31.9243Z" fill="#2D0F0F"/>
<path opacity="0.654" d="M75.2024 31.6089C87.1692 31.6089 96.8701 28.5378 96.8701 24.7493C96.8701 20.9608 87.1692 17.8896 75.2024 17.8896C63.2356 17.8896 53.5347 20.9608 53.5347 24.7493C53.5347 28.5378 63.2356 31.6089 75.2024 31.6089Z" fill="#2B1010"/>
<path opacity="0.692" d="M75.2019 31.2936C86.6175 31.2936 95.8716 28.3636 95.8716 24.7493C95.8716 21.135 86.6175 18.2051 75.2019 18.2051C63.7864 18.2051 54.5322 21.135 54.5322 24.7493C54.5322 28.3636 63.7864 31.2936 75.2019 31.2936Z" fill="#291111"/>
<path opacity="0.731" d="M75.2019 30.9782C86.0711 30.9782 94.8823 28.1895 94.8823 24.7494C94.8823 21.3093 86.0711 18.5205 75.2019 18.5205C64.3327 18.5205 55.5215 21.3093 55.5215 24.7494C55.5215 28.1895 64.3327 30.9782 75.2019 30.9782Z" fill="#271212"/>
<path opacity="0.769" d="M75.2024 30.6716C85.5252 30.6716 93.8935 28.0202 93.8935 24.7494C93.8935 21.4786 85.5252 18.8271 75.2024 18.8271C64.8795 18.8271 56.5112 21.4786 56.5112 24.7494C56.5112 28.0202 64.8795 30.6716 75.2024 30.6716Z" fill="#251212"/>
<path opacity="0.808" d="M75.2024 30.3563C84.9741 30.3563 92.8955 27.846 92.8955 24.7494C92.8955 21.6529 84.9741 19.1426 75.2024 19.1426C65.4308 19.1426 57.5093 21.6529 57.5093 24.7494C57.5093 27.846 65.4308 30.3563 75.2024 30.3563Z" fill="#231313"/>
<path opacity="0.846" d="M75.2019 30.041C84.4272 30.041 91.9057 27.6719 91.9057 24.7495C91.9057 21.8271 84.4272 19.458 75.2019 19.458C65.9766 19.458 58.498 21.8271 58.498 24.7495C58.498 27.6719 65.9766 30.041 75.2019 30.041Z" fill="#211414"/>
<path opacity="0.885" d="M75.2019 29.7256C83.876 29.7256 90.9077 27.4977 90.9077 24.7495C90.9077 22.0013 83.876 19.7734 75.2019 19.7734C66.5278 19.7734 59.4961 22.0013 59.4961 24.7495C59.4961 27.4977 66.5278 29.7256 75.2019 29.7256Z" fill="#1F1515"/>
<path opacity="0.923" d="M75.2014 29.4093C83.3291 29.4093 89.918 27.3226 89.918 24.7486C89.918 22.1746 83.3291 20.0879 75.2014 20.0879C67.0737 20.0879 60.4849 22.1746 60.4849 24.7486C60.4849 27.3226 67.0737 29.4093 75.2014 29.4093Z" fill="#1D1616"/>
<path opacity="0.962" d="M75.2014 29.0949C82.778 29.0949 88.92 27.1495 88.92 24.7496C88.92 22.3498 82.778 20.4043 75.2014 20.4043C67.6249 20.4043 61.4829 22.3498 61.4829 24.7496C61.4829 27.1495 67.6249 29.0949 75.2014 29.0949Z" fill="#1B1717"/>
<path d="M75.2019 28.7796C82.2321 28.7796 87.9311 26.9753 87.9311 24.7497C87.9311 22.524 82.2321 20.7197 75.2019 20.7197C68.1717 20.7197 62.4727 22.524 62.4727 24.7497C62.4727 26.9753 68.1717 28.7796 75.2019 28.7796Z" fill="#191818"/>
</g>
<g opacity="0.16">
<path opacity="0.038" d="M39.0472 118.76C59.7847 118.76 76.5958 110.931 76.5958 101.274C76.5958 91.616 59.7847 83.7871 39.0472 83.7871C18.3096 83.7871 1.49854 91.616 1.49854 101.274C1.49854 110.931 18.3096 118.76 39.0472 118.76Z" fill="#4A0101"/>
<path opacity="0.077" d="M39.0467 118.296C59.2379 118.296 75.606 110.675 75.606 101.274C75.606 91.873 59.2379 84.252 39.0467 84.252C18.8555 84.252 2.4873 91.873 2.4873 101.274C2.4873 110.675 18.8555 118.296 39.0467 118.296Z" fill="#480202"/>
<path opacity="0.115" d="M39.0384 117.831C58.6784 117.831 74.5997 110.418 74.5997 101.274C74.5997 92.129 58.6784 84.7158 39.0384 84.7158C19.3984 84.7158 3.47705 92.129 3.47705 101.274C3.47705 110.418 19.3984 117.831 39.0384 117.831Z" fill="#460303"/>
<path opacity="0.154" d="M39.0384 117.368C58.132 117.368 73.6105 110.162 73.6105 101.274C73.6105 92.3859 58.132 85.1807 39.0384 85.1807C19.9448 85.1807 4.46631 92.3859 4.46631 101.274C4.46631 110.162 19.9448 117.368 39.0384 117.368Z" fill="#440404"/>
<path opacity="0.192" d="M39.0388 116.912C57.5861 116.912 72.6216 109.911 72.6216 101.275C72.6216 92.638 57.5861 85.6367 39.0388 85.6367C20.4916 85.6367 5.45605 92.638 5.45605 101.275C5.45605 109.911 20.4916 116.912 39.0388 116.912Z" fill="#420505"/>
<path opacity="0.231" d="M39.0389 116.448C57.0349 116.448 71.6236 109.654 71.6236 101.274C71.6236 92.894 57.0349 86.1006 39.0389 86.1006C21.0428 86.1006 6.4541 92.894 6.4541 101.274C6.4541 109.654 21.0428 116.448 39.0389 116.448Z" fill="#400606"/>
<path opacity="0.269" d="M39.0384 115.983C56.4881 115.983 70.6339 109.397 70.6339 101.274C70.6339 93.15 56.4881 86.5645 39.0384 86.5645C21.5887 86.5645 7.44287 93.15 7.44287 101.274C7.44287 109.397 21.5887 115.983 39.0384 115.983Z" fill="#3E0606"/>
<path opacity="0.308" d="M39.0384 115.519C55.9369 115.519 69.6358 109.141 69.6358 101.274C69.6358 93.407 55.9369 87.0293 39.0384 87.0293C22.1399 87.0293 8.44092 93.407 8.44092 101.274C8.44092 109.141 22.1399 115.519 39.0384 115.519Z" fill="#3C0707"/>
<path opacity="0.346" d="M39.0379 115.063C55.39 115.063 68.6461 108.889 68.6461 101.274C68.6461 93.6581 55.39 87.4844 39.0379 87.4844C22.6857 87.4844 9.42969 93.6581 9.42969 101.274C9.42969 108.889 22.6857 115.063 39.0379 115.063Z" fill="#3A0808"/>
<path opacity="0.385" d="M39.0384 114.599C54.8441 114.599 67.6573 108.633 67.6573 101.274C67.6573 93.915 54.8441 87.9492 39.0384 87.9492C23.2326 87.9492 10.4194 93.915 10.4194 101.274C10.4194 108.633 23.2326 114.599 39.0384 114.599Z" fill="#380909"/>
<path opacity="0.423" d="M39.0384 114.135C54.293 114.135 66.6593 108.377 66.6593 101.274C66.6593 94.171 54.293 88.4131 39.0384 88.4131C23.7838 88.4131 11.4175 94.171 11.4175 101.274C11.4175 108.377 23.7838 114.135 39.0384 114.135Z" fill="#360A0A"/>
<path opacity="0.462" d="M39.0383 113.671C53.7466 113.671 65.67 108.121 65.67 101.274C65.67 94.428 53.7466 88.8779 39.0383 88.8779C24.3301 88.8779 12.4067 94.428 12.4067 101.274C12.4067 108.121 24.3301 113.671 39.0383 113.671Z" fill="#340B0B"/>
<path opacity="0.5" d="M39.0379 113.206C53.1949 113.206 64.6715 107.864 64.6715 101.274C64.6715 94.684 53.1949 89.3418 39.0379 89.3418C24.8808 89.3418 13.4043 94.684 13.4043 101.274C13.4043 107.864 24.8808 113.206 39.0379 113.206Z" fill="#330C0C"/>
<path opacity="0.538" d="M39.0374 112.751C52.648 112.751 63.6817 107.613 63.6817 101.274C63.6817 94.9361 52.648 89.7979 39.0374 89.7979C25.4267 89.7979 14.3931 94.9361 14.3931 101.274C14.3931 107.613 25.4267 112.751 39.0374 112.751Z" fill="#310D0D"/>
<path opacity="0.577" d="M39.0378 112.286C52.1022 112.286 62.6929 107.356 62.6929 101.274C62.6929 95.1921 52.1022 90.2617 39.0378 90.2617C25.9735 90.2617 15.3828 95.1921 15.3828 101.274C15.3828 107.356 25.9735 112.286 39.0378 112.286Z" fill="#2F0E0E"/>
<path opacity="0.615" d="M39.0379 111.822C51.551 111.822 61.6949 107.1 61.6949 101.274C61.6949 95.449 51.551 90.7266 39.0379 90.7266C26.5247 90.7266 16.3809 95.449 16.3809 101.274C16.3809 107.1 26.5247 111.822 39.0379 111.822Z" fill="#2D0F0F"/>
<path opacity="0.654" d="M39.0378 111.358C51.0046 111.358 60.7056 106.843 60.7056 101.274C60.7056 95.705 51.0046 91.1904 39.0378 91.1904C27.0711 91.1904 17.3701 95.705 17.3701 101.274C17.3701 106.843 27.0711 111.358 39.0378 111.358Z" fill="#2B1010"/>
<path opacity="0.692" d="M39.0379 110.903C50.4534 110.903 59.7076 106.592 59.7076 101.275C59.7076 95.9571 50.4534 91.6465 39.0379 91.6465C27.6223 91.6465 18.3682 95.9571 18.3682 101.275C18.3682 106.592 27.6223 110.903 39.0379 110.903Z" fill="#291111"/>
<path opacity="0.731" d="M39.0369 110.438C49.9061 110.438 58.7173 106.335 58.7173 101.274C58.7173 96.2131 49.9061 92.1104 39.0369 92.1104C28.1677 92.1104 19.3564 96.2131 19.3564 101.274C19.3564 106.335 28.1677 110.438 39.0369 110.438Z" fill="#271212"/>
<path opacity="0.769" d="M39.0378 109.974C49.3607 109.974 57.729 106.079 57.729 101.275C57.729 96.47 49.3607 92.5752 39.0378 92.5752C28.715 92.5752 20.3467 96.47 20.3467 101.275C20.3467 106.079 28.715 109.974 39.0378 109.974Z" fill="#251212"/>
<path opacity="0.808" d="M39.0379 109.509C48.8095 109.509 56.731 105.822 56.731 101.274C56.731 96.726 48.8095 93.0391 39.0379 93.0391C29.2662 93.0391 21.3447 96.726 21.3447 101.274C21.3447 105.822 29.2662 109.509 39.0379 109.509Z" fill="#231313"/>
<path opacity="0.846" d="M39.0373 109.054C48.2626 109.054 55.7412 105.571 55.7412 101.275C55.7412 96.9781 48.2626 93.4951 39.0373 93.4951C29.8121 93.4951 22.3335 96.9781 22.3335 101.275C22.3335 105.571 29.8121 109.054 39.0373 109.054Z" fill="#211414"/>
<path opacity="0.885" d="M39.0374 108.589C47.7115 108.589 54.7432 105.314 54.7432 101.274C54.7432 97.2341 47.7115 93.959 39.0374 93.959C30.3633 93.959 23.3315 97.2341 23.3315 101.274C23.3315 105.314 30.3633 108.589 39.0374 108.589Z" fill="#1F1515"/>
<path opacity="0.923" d="M39.0369 108.126C47.1646 108.126 53.7534 105.058 53.7534 101.275C53.7534 97.4911 47.1646 94.4238 39.0369 94.4238C30.9091 94.4238 24.3203 97.4911 24.3203 101.275C24.3203 105.058 30.9091 108.126 39.0369 108.126Z" fill="#1D1616"/>
<path opacity="0.962" d="M39.0369 107.661C46.6134 107.661 52.7554 104.801 52.7554 101.274C52.7554 97.747 46.6134 94.8877 39.0369 94.8877C31.4604 94.8877 25.3184 97.747 25.3184 101.274C25.3184 104.801 31.4604 107.661 39.0369 107.661Z" fill="#1B1717"/>
<path d="M39.0374 107.206C46.0675 107.206 51.7666 104.55 51.7666 101.275C51.7666 97.9991 46.0675 95.3438 39.0374 95.3438C32.0072 95.3438 26.3081 97.9991 26.3081 101.275C26.3081 104.55 32.0072 107.206 39.0374 107.206Z" fill="#191818"/>
</g>
<path d="M79.4946 12.8727C76.5268 18.3657 76.7632 28.7121 81.193 38.7256C87.6014 53.2158 83.3904 76.4668 64.3403 79.3228C45.2903 82.1788 48.0305 112.465 48.0305 112.465L17.0303 103.169C17.0303 103.169 14.4914 71.7623 32.9987 68.9851C51.506 66.208 55.6032 43.6316 49.3699 29.5531C43.1454 15.4746 45.4566 0.71283 53.3445 0.555137C54.185 0.537616 54.9641 0.616462 55.6908 0.774155L55.752 0.791678L56.4874 0.984409L56.54 1.00193L87.5752 9.08808C86.8573 8.9479 86.0956 8.86906 85.2814 8.88659C82.8039 8.93915 80.8604 10.3934 79.5296 12.8026C79.5209 12.8201 79.5034 12.8464 79.4946 12.8727Z" fill="url(#paint0_linear_74_4432)"/>
<path d="M96.3913 17.2702L79.6261 12.811L79.5386 12.7935C80.8605 10.3843 82.8041 8.92998 85.2904 8.87742C86.1045 8.85989 86.8662 8.93875 87.5841 9.07892L87.6191 9.08768C93.9837 10.3755 96.3913 17.2702 96.3913 17.2702Z" fill="url(#paint1_linear_74_4432)"/>
<path d="M79.6259 12.8115L79.4946 12.8728C79.5034 12.8465 79.5209 12.8202 79.5384 12.7939L79.6259 12.8115Z" fill="url(#paint2_linear_74_4432)"/>
<path d="M48.8971 6.06543L76.5092 13.074L75.1523 17.0864L47.8115 9.87634L48.8971 6.06543Z" fill="url(#paint3_linear_74_4432)"/>
<path d="M63.1586 22.5799L50.1754 19.207C49.8515 19.1194 49.5889 18.7865 49.5889 18.4536C49.5889 18.1207 49.8515 17.9192 50.1754 18.0068L63.1586 21.3797C63.4825 21.4673 63.7451 21.8002 63.7451 22.1331C63.7364 22.466 63.4737 22.6675 63.1586 22.5799Z" fill="url(#paint4_linear_74_4432)"/>
<path d="M71.8515 24.9016L66.59 23.4473C66.2661 23.3597 66.0034 23.0268 66.0034 22.6939C66.0034 22.3609 66.2661 22.1595 66.59 22.2471L71.8515 23.7013C72.1754 23.7889 72.4381 24.1218 72.4381 24.4548C72.4293 24.7789 72.1667 24.9804 71.8515 24.9016Z" fill="url(#paint5_linear_74_4432)"/>
<path d="M63.8065 26.8377L50.8234 23.4649C50.4995 23.3772 50.2368 23.0443 50.2368 22.7114C50.2368 22.3785 50.4995 22.177 50.8234 22.2646L63.8065 25.6375C64.1304 25.7251 64.3931 26.058 64.3931 26.3909C64.3843 26.7151 64.1217 26.9166 63.8065 26.8377Z" fill="url(#paint6_linear_74_4432)"/>
<path d="M72.4999 29.1594L67.2384 27.7051C66.9145 27.6175 66.6519 27.2846 66.6519 26.9517C66.6519 26.6188 66.9145 26.4173 67.2384 26.5049L72.4999 27.9591C72.8239 28.0468 73.0865 28.3797 73.0865 28.7126C73.0778 29.0367 72.8151 29.2382 72.4999 29.1594Z" fill="url(#paint7_linear_74_4432)"/>
<path d="M64.8392 31.078L51.8561 27.7051C51.5322 27.6175 51.2695 27.2846 51.2695 26.9517C51.2695 26.6188 51.5322 26.4173 51.8561 26.5049L64.8392 29.8777C65.1631 29.9654 65.4258 30.2983 65.4258 30.6312C65.417 30.9553 65.1544 31.1568 64.8392 31.078Z" fill="url(#paint8_linear_74_4432)"/>
<path d="M73.5327 33.3986L68.2711 31.9443C67.9472 31.8567 67.6846 31.5238 67.6846 31.1909C67.6846 30.858 67.9472 30.6565 68.2711 30.7441L73.5327 32.1984C73.8566 32.286 74.1192 32.6189 74.1192 32.9518C74.1105 33.276 73.8478 33.4775 73.5327 33.3986Z" fill="url(#paint9_linear_74_4432)"/>
<path d="M65.8812 34.9764L52.8981 31.6035C52.5742 31.5159 52.3115 31.183 52.3115 30.8501C52.3115 30.5172 52.5742 30.3157 52.8981 30.4033L65.8812 33.7762C66.2051 33.8638 66.4678 34.1967 66.4678 34.5296C66.4678 34.8538 66.2051 35.0552 65.8812 34.9764Z" fill="url(#paint10_linear_74_4432)"/>
<path d="M74.5742 37.298L69.3126 35.8438C68.9887 35.7562 68.7261 35.4232 68.7261 35.0903C68.7261 34.7574 68.9887 34.5559 69.3126 34.6435L74.5742 36.0978C74.8981 36.1854 75.1607 36.5183 75.1607 36.8512C75.1607 37.1754 74.8981 37.3769 74.5742 37.298Z" fill="url(#paint11_linear_74_4432)"/>
<path d="M68.2704 44.3846L55.2872 41.0117C54.9633 40.9241 54.7007 40.5912 54.7007 40.2583C54.7007 39.9254 54.9633 39.7239 55.2872 39.8115L68.2704 43.1844C68.5943 43.272 68.8569 43.6049 68.8569 43.9378C68.8482 44.2707 68.5855 44.4722 68.2704 44.3846Z" fill="url(#paint12_linear_74_4432)"/>
<path d="M76.9638 46.7062L71.7023 45.252C71.3784 45.1644 71.1157 44.8315 71.1157 44.4986C71.1157 44.1656 71.3784 43.9641 71.7023 44.0517L76.9638 45.506C77.2877 45.5936 77.5504 45.9265 77.5504 46.2595C77.5416 46.5924 77.279 46.7939 76.9638 46.7062Z" fill="url(#paint13_linear_74_4432)"/>
<path d="M69.3046 48.6248L56.3214 45.252C55.9975 45.1644 55.7349 44.8315 55.7349 44.4986C55.7349 44.1656 55.9975 43.9641 56.3214 44.0517L69.3046 47.4246C69.6285 47.5122 69.8911 47.8451 69.8911 48.1781C69.8824 48.511 69.6197 48.7125 69.3046 48.6248Z" fill="url(#paint14_linear_74_4432)"/>
<path d="M77.998 50.9465L72.7365 49.4922C72.4125 49.4046 72.1499 49.0717 72.1499 48.7388C72.1499 48.4059 72.4125 48.2044 72.7365 48.292L77.998 49.7463C78.3219 49.8339 78.5846 50.1668 78.5846 50.4997C78.5758 50.8326 78.3132 51.0341 77.998 50.9465Z" fill="url(#paint15_linear_74_4432)"/>
<path d="M69.0238 52.0946L56.0407 48.7217C55.7167 48.6341 55.4541 48.3012 55.4541 47.9683C55.4541 47.6354 55.7167 47.4339 56.0407 47.5215L69.0238 50.8944C69.3477 50.982 69.6103 51.3149 69.6103 51.6478C69.6016 51.9807 69.339 52.1822 69.0238 52.0946Z" fill="url(#paint16_linear_74_4432)"/>
<path d="M77.7172 54.4162L72.4557 52.9619C72.1318 52.8743 71.8691 52.5414 71.8691 52.2085C71.8691 51.8756 72.1318 51.6741 72.4557 51.7617L77.7172 53.216C78.0412 53.3036 78.3038 53.6365 78.3038 53.9694C78.295 54.2936 78.0324 54.5038 77.7172 54.4162Z" fill="url(#paint17_linear_74_4432)"/>
<path d="M64.6727 65.4637L51.6896 62.0908C51.3657 62.0032 51.103 61.6703 51.103 61.3374C51.103 61.0045 51.3657 60.803 51.6896 60.8906L64.6727 64.2635C64.9966 64.3511 65.2593 64.684 65.2593 65.0169C65.2593 65.3498 64.9966 65.5513 64.6727 65.4637Z" fill="url(#paint18_linear_74_4432)"/>
<path d="M73.3662 67.7853L68.1046 66.3311C67.7807 66.2435 67.5181 65.9106 67.5181 65.5776C67.5181 65.2447 67.7807 65.0432 68.1046 65.1308L73.3662 66.5851C73.6901 66.6727 73.9527 67.0056 73.9527 67.3385C73.9527 67.6715 73.6901 67.8729 73.3662 67.7853Z" fill="url(#paint19_linear_74_4432)"/>
<path d="M62.2572 68.3192L49.2741 64.9463C48.9501 64.8587 48.6875 64.5258 48.6875 64.1929C48.6875 63.86 48.9501 63.6585 49.2741 63.7461L62.2572 67.119C62.5811 67.2066 62.8438 67.5395 62.8438 67.8724C62.835 68.1965 62.5724 68.398 62.2572 68.3192Z" fill="url(#paint20_linear_74_4432)"/>
<path d="M70.9506 70.6408L65.6891 69.1865C65.3652 69.0989 65.1025 68.766 65.1025 68.4331C65.1025 68.1002 65.3652 67.8987 65.6891 67.9863L70.9506 69.4406C71.2746 69.5282 71.5372 69.8611 71.5372 70.194C71.5284 70.5182 71.2658 70.7197 70.9506 70.6408Z" fill="url(#paint21_linear_74_4432)"/>
<path d="M58.2464 71.0526L45.2633 67.6797C44.9394 67.5921 44.6768 67.2592 44.6768 66.9263C44.6768 66.5934 44.9394 66.3919 45.2633 66.4795L58.2464 69.8524C58.5704 69.94 58.833 70.2729 58.833 70.6058C58.833 70.9299 58.5704 71.1314 58.2464 71.0526Z" fill="url(#paint22_linear_74_4432)"/>
<path d="M66.9399 73.3742L61.6784 71.9199C61.3544 71.8323 61.0918 71.4994 61.0918 71.1665C61.0918 70.8336 61.3544 70.6321 61.6784 70.7197L66.9399 72.174C67.2638 72.2616 67.5265 72.5945 67.5265 72.9274C67.5265 73.2516 67.2638 73.4531 66.9399 73.3742Z" fill="url(#paint23_linear_74_4432)"/>
<path d="M39.4159 82.3543L26.4328 78.9815C26.1088 78.8939 25.8462 78.561 25.8462 78.228C25.8462 77.8951 26.1088 77.6936 26.4328 77.7812L39.4159 81.1541C39.7398 81.2417 40.0024 81.5746 40.0024 81.9075C39.9937 82.2405 39.731 82.4419 39.4159 82.3543Z" fill="url(#paint24_linear_74_4432)"/>
<path d="M48.1093 84.676L42.8478 83.2217C42.5239 83.1341 42.2612 82.8012 42.2612 82.4683C42.2612 82.1354 42.5239 81.9339 42.8478 82.0215L48.1093 83.4758C48.4333 83.5634 48.6959 83.8963 48.6959 84.2292C48.6871 84.5533 48.4245 84.7636 48.1093 84.676Z" fill="url(#paint25_linear_74_4432)"/>
<path d="M37.0511 87.4793L24.068 84.1065C23.7441 84.0189 23.4814 83.686 23.4814 83.353C23.4814 83.0201 23.7441 82.8186 24.068 82.9062L37.0511 86.2791C37.3751 86.3667 37.6377 86.6996 37.6377 87.0325C37.6289 87.3655 37.3663 87.5669 37.0511 87.4793Z" fill="url(#paint26_linear_74_4432)"/>
<path d="M45.7446 89.801L40.4831 88.3467C40.1591 88.2591 39.8965 87.9262 39.8965 87.5933C39.8965 87.2604 40.1591 87.0589 40.4831 87.1465L45.7446 88.6008C46.0685 88.6884 46.3311 89.0213 46.3311 89.3542C46.3224 89.6871 46.0685 89.8886 45.7446 89.801Z" fill="url(#paint27_linear_74_4432)"/>
<path d="M35.5643 92.9637L22.5812 89.5908C22.2573 89.5032 21.9946 89.1703 21.9946 88.8374C21.9946 88.5045 22.2573 88.303 22.5812 88.3906L35.5643 91.7635C35.8882 91.8511 36.1509 92.184 36.1509 92.5169C36.1509 92.8498 35.8882 93.0513 35.5643 92.9637Z" fill="url(#paint28_linear_74_4432)"/>
<path d="M44.2578 95.2854L38.9962 93.8311C38.6723 93.7435 38.4097 93.4106 38.4097 93.0777C38.4097 92.7447 38.6723 92.5432 38.9962 92.6308L44.2578 94.0851C44.5817 94.1727 44.8443 94.5056 44.8443 94.8385C44.8443 95.1715 44.5817 95.373 44.2578 95.2854Z" fill="url(#paint29_linear_74_4432)"/>
<path d="M54.079 54.4336L79.6251 59.9616L78.2944 63.1418L52.3193 56.9654L54.079 54.4336Z" fill="url(#paint30_linear_74_4432)"/>
<path d="M21.5127 93.165L44.6862 99.7181L44.4323 103.678L21.1362 96.8708L21.5127 93.165Z" fill="url(#paint31_linear_74_4432)"/>
<defs>
<linearGradient id="paint0_linear_74_4432" x1="45.8774" y1="71.3043" x2="93.6583" y2="-20.96" gradientUnits="userSpaceOnUse">
<stop stop-color="#9E9898"/>
<stop offset="1" stop-color="#DEDEDE"/>
</linearGradient>
<linearGradient id="paint1_linear_74_4432" x1="79.5346" y1="13.0731" x2="96.3928" y2="13.0731" gradientUnits="userSpaceOnUse">
<stop stop-color="#8B8B8B"/>
<stop offset="1" stop-color="#CBCBCB"/>
</linearGradient>
<linearGradient id="paint2_linear_74_4432" x1="79.4921" y1="12.8307" x2="79.6245" y2="12.8307" gradientUnits="userSpaceOnUse">
<stop stop-color="#F6F6F6"/>
<stop offset="1" stop-color="#CBCBCB"/>
</linearGradient>
<linearGradient id="paint3_linear_74_4432" x1="47.8152" y1="11.576" x2="76.5109" y2="11.576" gradientUnits="userSpaceOnUse">
<stop stop-color="#C3C3C3"/>
<stop offset="1" stop-color="#CBCBCB"/>
</linearGradient>
<linearGradient id="paint4_linear_74_4432" x1="49.5915" y1="18.4529" x2="63.7391" y2="18.4529" gradientUnits="userSpaceOnUse">
<stop stop-color="#DD2F2F"/>
<stop offset="1" stop-color="#FF6757"/>
</linearGradient>
<linearGradient id="paint5_linear_74_4432" x1="66.0071" y1="22.7371" x2="72.4327" y2="22.7371" gradientUnits="userSpaceOnUse">
<stop stop-color="#C3C3C3"/>
<stop offset="1" stop-color="#CBCBCB"/>
</linearGradient>
<linearGradient id="paint6_linear_74_4432" x1="50.2398" y1="22.7077" x2="64.3874" y2="22.7077" gradientUnits="userSpaceOnUse">
<stop stop-color="#C3C3C3"/>
<stop offset="1" stop-color="#CBCBCB"/>
</linearGradient>
<linearGradient id="paint7_linear_74_4432" x1="66.656" y1="26.9919" x2="73.0816" y2="26.9919" gradientUnits="userSpaceOnUse">
<stop stop-color="#C3C3C3"/>
<stop offset="1" stop-color="#CBCBCB"/>
</linearGradient>
<linearGradient id="paint8_linear_74_4432" x1="51.2728" y1="26.947" x2="65.4204" y2="26.947" gradientUnits="userSpaceOnUse">
<stop stop-color="#C3C3C3"/>
<stop offset="1" stop-color="#CBCBCB"/>
</linearGradient>
<linearGradient id="paint9_linear_74_4432" x1="67.689" y1="31.2301" x2="74.1146" y2="31.2301" gradientUnits="userSpaceOnUse">
<stop stop-color="#C3C3C3"/>
<stop offset="1" stop-color="#CBCBCB"/>
</linearGradient>
<linearGradient id="paint10_linear_74_4432" x1="52.3182" y1="30.8481" x2="66.4658" y2="30.8481" gradientUnits="userSpaceOnUse">
<stop stop-color="#C3C3C3"/>
<stop offset="1" stop-color="#CBCBCB"/>
</linearGradient>
<linearGradient id="paint11_linear_74_4432" x1="68.7339" y1="35.1323" x2="75.1594" y2="35.1323" gradientUnits="userSpaceOnUse">
<stop stop-color="#C3C3C3"/>
<stop offset="1" stop-color="#CBCBCB"/>
</linearGradient>
<linearGradient id="paint12_linear_74_4432" x1="54.7036" y1="40.2608" x2="68.8512" y2="40.2608" gradientUnits="userSpaceOnUse">
<stop stop-color="#C3C3C3"/>
<stop offset="1" stop-color="#CBCBCB"/>
</linearGradient>
<linearGradient id="paint13_linear_74_4432" x1="71.1198" y1="44.5449" x2="77.5453" y2="44.5449" gradientUnits="userSpaceOnUse">
<stop stop-color="#C3C3C3"/>
<stop offset="1" stop-color="#CBCBCB"/>
</linearGradient>
<linearGradient id="paint14_linear_74_4432" x1="55.7381" y1="44.5" x2="69.8857" y2="44.5" gradientUnits="userSpaceOnUse">
<stop stop-color="#C3C3C3"/>
<stop offset="1" stop-color="#CBCBCB"/>
</linearGradient>
<linearGradient id="paint15_linear_74_4432" x1="72.1542" y1="48.7842" x2="78.5798" y2="48.7842" gradientUnits="userSpaceOnUse">
<stop stop-color="#C3C3C3"/>
<stop offset="1" stop-color="#CBCBCB"/>
</linearGradient>
<linearGradient id="paint16_linear_74_4432" x1="55.4567" y1="47.9678" x2="69.6043" y2="47.9678" gradientUnits="userSpaceOnUse">
<stop stop-color="#C3C3C3"/>
<stop offset="1" stop-color="#CBCBCB"/>
</linearGradient>
<linearGradient id="paint17_linear_74_4432" x1="71.8729" y1="52.252" x2="78.2984" y2="52.252" gradientUnits="userSpaceOnUse">
<stop stop-color="#C3C3C3"/>
<stop offset="1" stop-color="#CBCBCB"/>
</linearGradient>
<linearGradient id="paint18_linear_74_4432" x1="51.1096" y1="61.3377" x2="65.2573" y2="61.3377" gradientUnits="userSpaceOnUse">
<stop stop-color="#DD2F2F"/>
<stop offset="1" stop-color="#FF6757"/>
</linearGradient>
<linearGradient id="paint19_linear_74_4432" x1="67.5258" y1="65.6219" x2="73.9514" y2="65.6219" gradientUnits="userSpaceOnUse">
<stop stop-color="#C3C3C3"/>
<stop offset="1" stop-color="#CBCBCB"/>
</linearGradient>
<linearGradient id="paint20_linear_74_4432" x1="48.689" y1="64.1895" x2="62.8366" y2="64.1895" gradientUnits="userSpaceOnUse">
<stop stop-color="#C3C3C3"/>
<stop offset="1" stop-color="#CBCBCB"/>
</linearGradient>
<linearGradient id="paint21_linear_74_4432" x1="65.1052" y1="68.4737" x2="71.5308" y2="68.4737" gradientUnits="userSpaceOnUse">
<stop stop-color="#C3C3C3"/>
<stop offset="1" stop-color="#CBCBCB"/>
</linearGradient>
<linearGradient id="paint22_linear_74_4432" x1="44.6837" y1="66.9241" x2="58.8313" y2="66.9241" gradientUnits="userSpaceOnUse">
<stop stop-color="#C3C3C3"/>
<stop offset="1" stop-color="#CBCBCB"/>
</linearGradient>
<linearGradient id="paint23_linear_74_4432" x1="61.1" y1="71.2082" x2="67.5255" y2="71.2082" gradientUnits="userSpaceOnUse">
<stop stop-color="#C3C3C3"/>
<stop offset="1" stop-color="#CBCBCB"/>
</linearGradient>
<linearGradient id="paint24_linear_74_4432" x1="25.8469" y1="78.2275" x2="39.9945" y2="78.2275" gradientUnits="userSpaceOnUse">
<stop stop-color="#DD2F2F"/>
<stop offset="1" stop-color="#FF6757"/>
</linearGradient>
<linearGradient id="paint25_linear_74_4432" x1="42.2631" y1="82.5117" x2="48.6887" y2="82.5117" gradientUnits="userSpaceOnUse">
<stop stop-color="#C3C3C3"/>
<stop offset="1" stop-color="#CBCBCB"/>
</linearGradient>
<linearGradient id="paint26_linear_74_4432" x1="23.485" y1="83.3563" x2="37.6326" y2="83.3563" gradientUnits="userSpaceOnUse">
<stop stop-color="#C3C3C3"/>
<stop offset="1" stop-color="#CBCBCB"/>
</linearGradient>
<linearGradient id="paint27_linear_74_4432" x1="39.9012" y1="87.6405" x2="46.3268" y2="87.6405" gradientUnits="userSpaceOnUse">
<stop stop-color="#C3C3C3"/>
<stop offset="1" stop-color="#CBCBCB"/>
</linearGradient>
<linearGradient id="paint28_linear_74_4432" x1="21.9998" y1="88.8397" x2="36.1474" y2="88.8397" gradientUnits="userSpaceOnUse">
<stop stop-color="#C3C3C3"/>
<stop offset="1" stop-color="#CBCBCB"/>
</linearGradient>
<linearGradient id="paint29_linear_74_4432" x1="38.416" y1="93.1238" x2="44.8415" y2="93.1238" gradientUnits="userSpaceOnUse">
<stop stop-color="#C3C3C3"/>
<stop offset="1" stop-color="#CBCBCB"/>
</linearGradient>
<linearGradient id="paint30_linear_74_4432" x1="52.3172" y1="58.7868" x2="79.6237" y2="58.7868" gradientUnits="userSpaceOnUse">
<stop stop-color="#C3C3C3"/>
<stop offset="1" stop-color="#CBCBCB"/>
</linearGradient>
<linearGradient id="paint31_linear_74_4432" x1="32.4704" y1="99.389" x2="35.8869" y2="92.7918" gradientUnits="userSpaceOnUse">
<stop stop-color="#C3C3C3"/>
<stop offset="1" stop-color="#CBCBCB"/>
</linearGradient>
</defs>
</svg>
