<svg width="220" height="220" viewBox="0 0 220 220" fill="none" xmlns="http://www.w3.org/2000/svg">
<g clip-path="url(#clip0_30_70)">
<path d="M206.429 132.072C218.618 78.812 185.323 25.7554 132.062 13.567C78.8023 1.37859 25.7458 34.6738 13.5574 87.934C1.36895 141.194 34.6642 194.251 87.9243 206.439C141.184 218.628 194.241 185.332 206.429 132.072Z" fill="url(#paint0_radial_30_70)"/>
<path d="M154.099 147.017C132.937 124.151 90.5547 106.324 59.4282 107.275C28.3018 108.226 20.2115 127.316 41.3599 150.168C62.5082 173.019 104.904 190.846 136.031 189.981C167.157 189.115 175.248 169.868 154.099 147.017Z" fill="#736C77"/>
<path d="M110 198.497C89.5896 198.497 69.1651 193.983 53.6232 184.956C38.0812 175.929 29.4941 163.666 29.4941 150.565C29.4941 137.465 38.0812 125.244 53.6232 116.188C84.707 98.12 135.293 98.12 166.377 116.188C181.99 125.244 190.506 137.479 190.506 150.565C190.506 163.652 181.99 175.901 166.377 184.956C150.764 194.012 130.424 198.497 110 198.497ZM110 108.226C90.6116 108.226 71.2232 112.484 56.4761 121.085C42.6941 129.09 35.1858 139.537 35.1858 150.565C35.1858 161.594 42.7793 172.04 56.547 180.045C86.0554 197.191 134.086 197.191 163.595 180.045C177.363 172.04 184.885 161.594 184.885 150.565C184.885 139.537 177.292 129.09 163.595 121.099C148.777 112.512 129.388 108.226 110 108.226Z" fill="#8F8F8F"/>
<path d="M107.516 197.12C87.4608 196.751 68.5834 191.996 54.3614 183.721C39.2027 174.935 30.8569 163.226 30.8569 150.565C30.8569 137.905 39.2027 126.209 54.3331 117.409C85.0195 99.5819 134.967 99.5819 165.667 117.409C184.232 128.196 192.521 143.724 187.866 158.939C187.815 159.123 187.729 159.294 187.611 159.443C187.493 159.592 187.346 159.716 187.18 159.807C187.013 159.899 186.83 159.955 186.64 159.975C186.451 159.994 186.26 159.975 186.079 159.919C185.897 159.862 185.729 159.77 185.583 159.648C185.438 159.526 185.318 159.375 185.232 159.206C185.146 159.036 185.095 158.851 185.082 158.662C185.068 158.472 185.093 158.282 185.155 158.102C189.413 144.235 181.578 129.942 164.248 119.864C134.328 102.492 85.6724 102.492 55.7524 119.864C41.5589 128.125 33.6956 139.026 33.6956 150.565C33.6956 162.105 41.5305 173.005 55.7524 181.266C69.5769 189.299 87.9718 193.912 107.545 194.281C107.921 194.281 108.282 194.431 108.548 194.697C108.814 194.963 108.964 195.324 108.964 195.701C108.964 196.077 108.814 196.438 108.548 196.704C108.282 196.97 107.921 197.12 107.545 197.12H107.516Z" fill="#EF1698"/>
<path d="M29.6076 198.866H28.1882V192.905C28.1882 192.591 28.0646 192.29 27.844 192.066C27.6235 191.843 27.3239 191.716 27.0101 191.712H20.8359V190.293H26.9675C27.6577 190.297 28.3184 190.574 28.8051 191.063C29.2918 191.552 29.565 192.214 29.565 192.905L29.6076 198.866ZM168.761 113.705L151.161 147.954C151.161 147.954 22.2127 77.511 21.8295 76.3755C21.7331 76.0853 21.7331 75.7716 21.8295 75.4813C22.8085 76.0326 23.8287 76.5072 24.8811 76.9007C27.5495 77.8517 28.7417 77.3123 29.863 76.5033C30.9871 75.7213 32.3082 75.2707 33.6758 75.203C35.0435 75.1352 36.4027 75.453 37.5985 76.1201L45.1921 80.293L55.1275 62.7639C55.6787 61.593 56.5243 60.585 57.5817 59.8387C58.639 59.0923 59.8719 58.6331 61.1598 58.5059L168.761 113.705Z" fill="#182837"/>
<path d="M21.8298 75.4813L21.7588 75.6801C21.7588 75.6801 21.8156 75.5523 21.8298 75.4813ZM168.761 113.705L148.096 110.866C146.811 110.999 145.583 111.461 144.529 112.207C143.475 112.953 142.631 113.957 142.077 115.124L134.981 129.516L125.925 127.685C124.902 127.818 123.923 128.183 123.063 128.751C122.202 129.319 121.482 130.076 120.957 130.964C120.957 130.964 28.5717 79.0865 28.5149 79.0723L26.6839 77.3549C27.235 77.4382 27.7975 77.4054 28.3352 77.2588C28.8729 77.1121 29.374 76.8548 29.8065 76.5033C30.9306 75.7213 32.2517 75.2707 33.6193 75.203C34.987 75.1352 36.3462 75.453 37.542 76.1201L45.1356 80.293L55.071 62.7639C55.6222 61.593 56.4678 60.585 57.5252 59.8387C58.5825 59.0923 59.8154 58.6331 61.1033 58.5059L168.761 113.705Z" fill="#182837"/>
<path d="M135.208 129.431L121.184 130.85L25.5483 77.3264L25.1367 76.8581C27.8051 77.809 28.9974 77.2697 30.1187 76.4606C31.2427 75.6786 32.5638 75.2281 33.9315 75.1603C35.2991 75.0926 36.6583 75.4103 37.8541 76.0774L135.208 129.431Z" fill="#5A5C71"/>
<path d="M198.241 76.3613L171.345 105.557C170.095 106.932 169.311 108.665 169.102 110.511L168.761 113.676L61.146 58.6619L61.4724 55.4684C61.6765 53.6228 62.4676 51.8914 63.7292 50.529L90.626 21.2903C102.577 25.9883 139.04 17.5858 157.463 25.1083C172.097 31.1122 181.394 66.4258 198.241 76.3613Z" fill="#8A818F"/>
<path d="M66.9509 57.129H66.8232L65.4038 56.3909V55.9083C65.4479 55.5098 65.5433 55.1186 65.6877 54.7445C65.7003 54.7088 65.72 54.676 65.7455 54.648C65.771 54.62 65.8019 54.5974 65.8363 54.5815C65.8707 54.5657 65.9079 54.5568 65.9458 54.5556C65.9836 54.5543 66.0213 54.5606 66.0567 54.5742C66.1265 54.6027 66.1829 54.6567 66.2145 54.7251C66.2461 54.7936 66.2506 54.8715 66.227 54.9432C66.102 55.2726 66.0163 55.6156 65.9715 55.9651V56.0645L67.0645 56.618C67.0982 56.6346 67.1283 56.6577 67.153 56.6861C67.1777 56.7144 67.1965 56.7473 67.2084 56.7829C67.2203 56.8186 67.225 56.8563 67.2222 56.8937C67.2194 56.9312 67.2092 56.9677 67.1922 57.0013C67.1651 57.0402 67.129 57.0722 67.087 57.0944C67.0451 57.1166 66.9984 57.1285 66.9509 57.129ZM68.4412 51.9767C68.3765 51.9965 68.3073 51.9965 68.2425 51.9767C68.1905 51.9237 68.1614 51.8523 68.1614 51.778C68.1614 51.7037 68.1905 51.6324 68.2425 51.5793L70.0451 49.6064C70.102 49.5565 70.1752 49.529 70.2509 49.529C70.3266 49.529 70.3998 49.5565 70.4567 49.6064C70.5087 49.6595 70.5379 49.7308 70.5379 49.8051C70.5379 49.8794 70.5087 49.9508 70.4567 50.0038L68.6541 51.9767C68.5854 52.0017 68.51 52.0017 68.4412 51.9767ZM72.9548 47.08C72.8827 47.0779 72.8131 47.0531 72.7561 47.009C72.7062 46.952 72.6786 46.8789 72.6786 46.8032C72.6786 46.7275 72.7062 46.6543 72.7561 46.5974L74.5586 44.6387C74.6141 44.5857 74.6878 44.5562 74.7645 44.5562C74.8411 44.5562 74.9148 44.5857 74.9703 44.6387C75.0223 44.6917 75.0514 44.7631 75.0514 44.8374C75.0514 44.9117 75.0223 44.983 74.9703 45.0361L73.1677 46.9806C73.142 47.0122 73.1095 47.0375 73.0726 47.0547C73.0357 47.0719 72.9955 47.0805 72.9548 47.08ZM77.4683 42.1832C77.3934 42.1821 77.322 42.1515 77.2696 42.098C77.2176 42.045 77.1885 41.9736 77.1885 41.8993C77.1885 41.825 77.2176 41.7537 77.2696 41.7006L79.058 39.7419C79.0832 39.7139 79.1136 39.6912 79.1475 39.675C79.1815 39.6588 79.2183 39.6495 79.2558 39.6475C79.2934 39.6455 79.331 39.6509 79.3665 39.6635C79.4019 39.676 79.4346 39.6954 79.4625 39.7206C79.4905 39.7458 79.5132 39.7762 79.5294 39.8101C79.5456 39.8441 79.555 39.8809 79.5569 39.9185C79.5589 39.956 79.5535 39.9936 79.5409 40.0291C79.5284 40.0645 79.509 40.0972 79.4838 40.1251L77.667 42.0838C77.6161 42.1413 77.5449 42.1769 77.4683 42.1832ZM81.9677 37.2864C81.9147 37.2804 81.8644 37.2602 81.8218 37.2281C81.7793 37.196 81.7462 37.153 81.7259 37.1038C81.7056 37.0545 81.6989 37.0007 81.7065 36.9479C81.7141 36.8952 81.7356 36.8454 81.769 36.8038L83.5715 34.8451C83.6247 34.8018 83.6917 34.7792 83.7602 34.7815C83.8287 34.7837 83.8941 34.8107 83.9443 34.8574C83.9945 34.9041 84.026 34.9674 84.0332 35.0356C84.0403 35.1038 84.0226 35.1723 83.9832 35.2283L82.1806 37.1871C82.1537 37.2172 82.1209 37.2415 82.0843 37.2586C82.0477 37.2757 82.008 37.2851 81.9677 37.2864ZM86.4812 32.3754C86.4221 32.3999 86.3558 32.3999 86.2967 32.3754C86.2692 32.3502 86.2472 32.3195 86.2322 32.2853C86.2171 32.2511 86.2094 32.2141 86.2094 32.1767C86.2094 32.1394 86.2171 32.1024 86.2322 32.0682C86.2472 32.034 86.2692 32.0033 86.2967 31.978L88.0993 30.0193C88.1246 29.9918 88.1553 29.9698 88.1895 29.9548C88.2237 29.9397 88.2606 29.932 88.298 29.932C88.3354 29.932 88.3723 29.9397 88.4065 29.9548C88.4407 29.9698 88.4714 29.9918 88.4967 30.0193C88.5496 30.0748 88.5792 30.1485 88.5792 30.2251C88.5792 30.3018 88.5496 30.3755 88.4967 30.4309L86.6941 32.3896C86.624 32.4128 86.5476 32.4077 86.4812 32.3754ZM90.9948 27.4787C90.9586 27.4808 90.9223 27.4756 90.8882 27.4634C90.854 27.4512 90.8227 27.4323 90.7961 27.4077C90.7658 27.378 90.7425 27.342 90.728 27.3021C90.7134 27.2623 90.708 27.2197 90.7121 27.1775C90.7162 27.1353 90.7297 27.0946 90.7516 27.0583C90.7735 27.0219 90.8032 26.991 90.8386 26.9677L91.9174 25.8038H92.0735C92.5135 25.9032 92.9677 26.0025 93.4928 26.0735C93.567 26.0906 93.6319 26.1353 93.6741 26.1987C93.7164 26.262 93.7327 26.3391 93.7199 26.4142C93.7061 26.4872 93.6642 26.552 93.6031 26.5944C93.5421 26.6369 93.4668 26.6537 93.3935 26.6413L92.1586 26.4L91.307 27.3225C91.2765 27.3767 91.2304 27.4205 91.1748 27.4483C91.1191 27.4761 91.0565 27.4867 90.9948 27.4787ZM187.852 73.3806C187.811 73.3823 187.77 73.3741 187.733 73.3569C187.696 73.3396 187.664 73.3136 187.639 73.2813C187.043 72.6284 186.432 71.8619 185.822 71.1806C185.798 71.1517 185.779 71.1183 185.768 71.0824C185.757 71.0464 185.753 71.0086 185.756 70.971C185.759 70.9334 185.77 70.8969 185.787 70.8635C185.805 70.83 185.828 70.8003 185.857 70.7761C185.886 70.7519 185.92 70.7336 185.956 70.7222C185.992 70.7109 186.029 70.7068 186.067 70.7101C186.105 70.7134 186.141 70.724 186.175 70.7414C186.208 70.7589 186.238 70.7827 186.262 70.8116C186.858 71.5496 187.468 72.2309 188.064 72.9122C188.116 72.9653 188.146 73.0366 188.146 73.1109C188.146 73.1852 188.116 73.2566 188.064 73.3096C188.005 73.3601 187.929 73.3856 187.852 73.3806ZM183.508 67.9871C183.464 67.986 183.421 67.9753 183.382 67.9557C183.343 67.936 183.308 67.908 183.281 67.8735C182.742 67.1213 182.203 66.369 181.677 65.5883C181.647 65.5265 181.64 65.4558 181.658 65.3892C181.676 65.3227 181.717 65.2649 181.775 65.2267C181.832 65.1885 181.901 65.1724 181.969 65.1815C182.038 65.1906 182.1 65.2242 182.146 65.2761C182.671 66.0425 183.196 66.7948 183.735 67.5329C183.763 67.5581 183.785 67.5888 183.8 67.623C183.815 67.6573 183.823 67.6942 183.823 67.7316C183.823 67.7689 183.815 67.8059 183.8 67.8401C183.785 67.8743 183.763 67.905 183.735 67.9303C183.704 67.9562 183.668 67.9748 183.628 67.9846C183.589 67.9944 183.548 67.9953 183.508 67.9871ZM179.633 62.3096C179.586 62.3103 179.539 62.299 179.496 62.2767C179.454 62.2544 179.418 62.2218 179.392 62.1819C178.895 61.4013 178.413 60.6064 177.973 59.8258C177.934 59.761 177.921 59.684 177.937 59.6103C177.953 59.5365 177.996 59.4715 178.058 59.4283C178.09 59.408 178.127 59.3944 178.164 59.3884C178.202 59.3823 178.241 59.384 178.278 59.3933C178.315 59.4026 178.35 59.4193 178.38 59.4424C178.411 59.4655 178.436 59.4945 178.455 59.5277C178.938 60.3083 179.421 61.1032 179.875 61.8696C179.913 61.9344 179.926 62.0114 179.91 62.0851C179.895 62.1589 179.851 62.2239 179.79 62.2671C179.736 62.2706 179.682 62.2608 179.633 62.2387V62.3096ZM176 56.32C175.951 56.3167 175.904 56.3022 175.862 56.2776C175.821 56.2529 175.785 56.2188 175.759 56.178C175.29 55.3832 174.822 54.5884 174.339 53.7793C174.315 53.7166 174.314 53.6475 174.337 53.5841C174.359 53.5208 174.403 53.4673 174.461 53.4333C174.518 53.3992 174.586 53.3868 174.653 53.3982C174.719 53.4096 174.779 53.444 174.822 53.4954L176.241 55.8942C176.274 55.9591 176.283 56.034 176.264 56.1046C176.246 56.1753 176.202 56.2367 176.142 56.2774C176.098 56.3023 176.05 56.3168 176 56.32ZM172.523 50.3303C172.474 50.3282 172.426 50.3142 172.384 50.2894C172.342 50.2647 172.307 50.23 172.281 50.1884L170.862 47.7896C170.835 47.758 170.816 47.721 170.805 47.6812C170.794 47.6414 170.793 47.5997 170.8 47.559C170.807 47.5183 170.822 47.4797 170.846 47.4457C170.869 47.4118 170.9 47.3834 170.935 47.3625C170.971 47.3415 171.011 47.3286 171.052 47.3246C171.093 47.3206 171.134 47.3256 171.173 47.3392C171.212 47.3529 171.248 47.3748 171.277 47.4036C171.307 47.4324 171.33 47.4672 171.344 47.5058C171.813 48.3006 172.281 49.0954 172.764 49.9045C172.784 49.9358 172.797 49.9709 172.803 50.0076C172.809 50.0443 172.807 50.0818 172.798 50.1178C172.789 50.1538 172.772 50.1875 172.749 50.2167C172.726 50.2459 172.697 50.2701 172.664 50.2877C172.631 50.3113 172.592 50.326 172.551 50.3303H172.523ZM169.003 44.3548C168.955 44.3555 168.908 44.3442 168.866 44.3218C168.823 44.2995 168.787 44.2669 168.761 44.2271C168.279 43.4322 167.782 42.6374 167.342 41.8709C167.304 41.8084 167.292 41.7336 167.308 41.6622C167.323 41.5908 167.366 41.5283 167.427 41.4877C167.459 41.4667 167.494 41.4523 167.531 41.4452C167.568 41.4381 167.607 41.4386 167.644 41.4465C167.681 41.4545 167.716 41.4697 167.747 41.4914C167.778 41.5131 167.804 41.5408 167.824 41.5729C168.307 42.3393 168.804 43.1342 169.244 43.929C169.264 43.9614 169.278 43.9976 169.284 44.0354C169.29 44.0731 169.288 44.1118 169.279 44.1489C169.27 44.186 169.253 44.2209 169.23 44.2514C169.207 44.2819 169.178 44.3074 169.144 44.3264L169.003 44.3548ZM165.227 38.5496C165.181 38.5493 165.137 38.5374 165.097 38.515C165.057 38.4927 165.024 38.4606 165 38.4219C164.446 37.6271 163.893 36.8748 163.368 36.1935C163.316 36.1404 163.287 36.0691 163.287 35.9948C163.287 35.9205 163.316 35.8492 163.368 35.7961C163.421 35.7441 163.492 35.7149 163.566 35.7149C163.641 35.7149 163.712 35.7441 163.765 35.7961C164.29 36.4774 164.844 37.2154 165.412 38.0387C165.464 38.0917 165.493 38.1631 165.493 38.2374C165.493 38.3117 165.464 38.383 165.412 38.4361C165.37 38.4862 165.316 38.5252 165.255 38.5496H165.227ZM160.969 33.1419C160.928 33.1436 160.887 33.1354 160.85 33.1181C160.813 33.1009 160.781 33.0749 160.756 33.0425C160.118 32.3949 159.44 31.7881 158.726 31.2258C158.674 31.1727 158.645 31.1014 158.645 31.0271C158.645 30.9528 158.674 30.8814 158.726 30.8283C158.752 30.8008 158.782 30.7788 158.817 30.7638C158.851 30.7488 158.888 30.741 158.925 30.741C158.962 30.741 158.999 30.7488 159.034 30.7638C159.068 30.7788 159.099 30.8008 159.124 30.8283C159.831 31.3932 160.504 31.9999 161.139 32.6451C161.167 32.6704 161.189 32.7011 161.204 32.7353C161.219 32.7695 161.227 32.8065 161.227 32.8438C161.227 32.8812 161.219 32.9182 161.204 32.9524C161.189 32.9866 161.167 33.0173 161.139 33.0425C161.115 33.0716 161.084 33.0954 161.05 33.1125C161.016 33.1295 160.979 33.1395 160.941 33.1419H160.969ZM155.377 29.1535H155.277C154.468 28.8413 153.588 28.5574 152.666 28.3019C152.629 28.2921 152.595 28.275 152.565 28.2518C152.535 28.2285 152.51 28.1995 152.492 28.1664C152.473 28.1333 152.461 28.0969 152.457 28.0592C152.453 28.0215 152.456 27.9834 152.467 27.9471C152.49 27.8752 152.539 27.8147 152.605 27.7778C152.671 27.7409 152.749 27.7304 152.822 27.7483C153.759 28.018 154.653 28.3019 155.476 28.6283C155.533 28.6552 155.579 28.6999 155.607 28.7555C155.635 28.8112 155.645 28.8747 155.633 28.9362C155.622 28.9976 155.591 29.0536 155.544 29.0955C155.498 29.1374 155.439 29.1627 155.377 29.1677V29.1535ZM148.692 27.4077C147.84 27.2658 146.917 27.1238 145.966 27.0103C145.93 27.0069 145.894 26.9959 145.861 26.9781C145.829 26.9603 145.8 26.9359 145.778 26.9066C145.755 26.8774 145.739 26.8437 145.73 26.8078C145.721 26.7719 145.719 26.7346 145.725 26.698C145.726 26.6603 145.736 26.6233 145.753 26.5897C145.77 26.5561 145.794 26.5267 145.824 26.5036C145.854 26.4806 145.889 26.4644 145.926 26.4563C145.962 26.4482 146.001 26.4483 146.037 26.4567C146.988 26.5703 147.925 26.698 148.791 26.8542C148.866 26.8542 148.938 26.8841 148.992 26.9373C149.045 26.9905 149.075 27.0627 149.075 27.138C149.075 27.2133 149.045 27.2855 148.992 27.3388C148.938 27.392 148.866 27.4219 148.791 27.4219L148.692 27.4077ZM104.422 27.4077C104.347 27.4077 104.274 27.3778 104.221 27.3246C104.168 27.2713 104.138 27.1991 104.138 27.1238C104.138 27.0485 104.168 26.9763 104.221 26.9231C104.274 26.8699 104.347 26.84 104.422 26.84H107.261C107.388 26.84 107.544 26.9677 107.544 27.1238C107.546 27.1604 107.541 27.197 107.528 27.2314C107.515 27.2658 107.496 27.2972 107.471 27.3238C107.445 27.3503 107.415 27.3715 107.381 27.3859C107.348 27.4003 107.311 27.4078 107.275 27.4077H104.436H104.422ZM100.263 27.4077C99.2838 27.4077 98.347 27.3367 97.4244 27.2658C97.3872 27.2639 97.3506 27.2548 97.3168 27.2388C97.2831 27.2228 97.2528 27.2004 97.2278 27.1727C97.2027 27.145 97.1834 27.1126 97.1708 27.0775C97.1583 27.0423 97.1529 27.005 97.1548 26.9677C97.1651 26.8925 97.2025 26.8236 97.26 26.7739C97.3175 26.7243 97.3911 26.6973 97.467 26.698C98.3186 26.698 99.2554 26.8116 100.221 26.84C100.258 26.8418 100.294 26.8509 100.328 26.8669C100.362 26.8829 100.392 26.9054 100.417 26.933C100.442 26.9607 100.462 26.9931 100.474 27.0283C100.487 27.0634 100.492 27.1007 100.49 27.138C100.473 27.1932 100.439 27.2418 100.394 27.2774C100.348 27.3129 100.293 27.3336 100.235 27.3367L100.263 27.4077ZM111.348 27.2516C111.312 27.2535 111.275 27.248 111.241 27.2353C111.206 27.2226 111.175 27.203 111.148 27.1778C111.122 27.1526 111.101 27.1222 111.086 27.0885C111.072 27.0548 111.064 27.0185 111.064 26.9819C111.063 26.9446 111.068 26.9073 111.081 26.8721C111.093 26.837 111.112 26.8046 111.137 26.7769C111.162 26.7492 111.193 26.7268 111.227 26.7108C111.26 26.6948 111.297 26.6856 111.334 26.6838L114.173 26.5703C114.247 26.5699 114.319 26.5974 114.374 26.6473C114.429 26.6972 114.464 26.7659 114.471 26.84C114.471 26.9143 114.444 26.9861 114.394 27.0413C114.344 27.0964 114.275 27.1309 114.201 27.138L111.363 27.2516H111.348ZM118.261 26.9393C118.189 26.9362 118.12 26.9072 118.068 26.8576C118.016 26.8081 117.983 26.7413 117.977 26.6696C117.976 26.5953 118.004 26.5235 118.054 26.4683C118.104 26.4132 118.172 26.3787 118.246 26.3716L121.014 26.2438C121.089 26.2435 121.16 26.271 121.215 26.3209C121.271 26.3708 121.305 26.4395 121.312 26.5135C121.314 26.5508 121.309 26.5881 121.296 26.6233C121.284 26.6584 121.264 26.6908 121.239 26.7185C121.214 26.7462 121.184 26.7687 121.15 26.7846C121.116 26.8006 121.08 26.8098 121.043 26.8116L118.204 26.9393H118.261ZM141.808 26.698C140.913 26.6271 139.991 26.5845 139.04 26.5419C139.003 26.5419 138.967 26.5345 138.933 26.5201C138.9 26.5057 138.869 26.4845 138.844 26.458C138.819 26.4314 138.799 26.4 138.787 26.3656C138.774 26.3312 138.768 26.2946 138.77 26.258C138.77 26.1019 138.912 25.9458 139.068 25.9883C140.019 25.9883 140.942 26.0735 141.907 26.1303C141.945 26.1301 141.983 26.1379 142.017 26.1532C142.052 26.1685 142.083 26.1909 142.109 26.219C142.134 26.2472 142.153 26.2803 142.165 26.3164C142.177 26.3525 142.181 26.3906 142.177 26.4283C142.166 26.4688 142.146 26.5065 142.12 26.5389C142.093 26.5714 142.06 26.5978 142.022 26.6166C141.985 26.6353 141.944 26.646 141.902 26.6478C141.86 26.6496 141.818 26.6425 141.779 26.6271L141.808 26.698ZM125.187 26.698C125.112 26.698 125.04 26.6681 124.986 26.6149C124.933 26.5616 124.903 26.4894 124.903 26.4142C124.901 26.3776 124.907 26.341 124.919 26.3066C124.932 26.2722 124.952 26.2408 124.977 26.2142C125.002 26.1877 125.033 26.1665 125.066 26.1521C125.1 26.1377 125.136 26.1302 125.173 26.1303L128.012 26.0309C128.087 26.0309 128.159 26.0608 128.212 26.1141C128.266 26.1673 128.295 26.2395 128.295 26.3148C128.297 26.3514 128.292 26.388 128.279 26.4224C128.266 26.4567 128.247 26.4882 128.222 26.5147C128.196 26.5413 128.166 26.5624 128.132 26.5769C128.099 26.5913 128.062 26.5987 128.026 26.5987L125.187 26.698ZM132.113 26.5135C132.077 26.5154 132.04 26.5099 132.006 26.4972C131.972 26.4845 131.94 26.465 131.914 26.4397C131.887 26.4145 131.866 26.3841 131.851 26.3504C131.837 26.3167 131.83 26.2805 131.83 26.2438C131.833 26.1682 131.863 26.0962 131.915 26.0414C131.968 25.9866 132.038 25.9526 132.113 25.9458H134.952C135.027 25.9458 135.1 25.9757 135.153 26.0289C135.206 26.0821 135.236 26.1544 135.236 26.2296C135.236 26.3049 135.206 26.3771 135.153 26.4304C135.1 26.4836 135.027 26.5135 134.952 26.5135H132.113ZM190.889 78.3342C190.829 78.3537 190.764 78.3537 190.704 78.3342C190.652 78.2787 190.622 78.205 190.622 78.1283C190.622 78.0517 190.652 77.978 190.704 77.9225L191.457 77.0993L190.619 76.3471C190.592 76.3218 190.57 76.2911 190.555 76.2569C190.54 76.2227 190.532 76.1857 190.532 76.1484C190.532 76.111 190.54 76.074 190.555 76.0398C190.57 76.0056 190.592 75.9749 190.619 75.9496C190.676 75.8997 190.749 75.8722 190.825 75.8722C190.901 75.8722 190.974 75.8997 191.031 75.9496C191.372 76.2761 191.726 76.5883 192.081 76.8864L192.308 77.0709L191.144 78.3342C191.106 78.3566 191.062 78.3684 191.017 78.3684C190.972 78.3684 190.928 78.3566 190.889 78.3342ZM168.25 102.903C168.19 102.92 168.126 102.92 168.066 102.903C168.013 102.848 167.983 102.774 167.983 102.697C167.983 102.621 168.013 102.547 168.066 102.492L169.868 100.533C169.924 100.48 169.997 100.45 170.074 100.45C170.151 100.45 170.224 100.48 170.28 100.533C170.332 100.586 170.361 100.657 170.361 100.732C170.361 100.806 170.332 100.877 170.28 100.93L168.463 102.903C168.395 102.931 168.319 102.931 168.25 102.903ZM172.778 97.9354C172.725 97.9294 172.675 97.9093 172.632 97.8771C172.59 97.845 172.557 97.8021 172.536 97.7528C172.516 97.7035 172.509 97.6497 172.517 97.597C172.524 97.5442 172.546 97.4945 172.579 97.4529L174.382 95.4942C174.408 95.4662 174.44 95.444 174.476 95.4288C174.511 95.4136 174.549 95.4058 174.588 95.4058C174.626 95.4058 174.664 95.4136 174.7 95.4288C174.735 95.444 174.767 95.4662 174.793 95.4942C174.845 95.5472 174.875 95.6186 174.875 95.6929C174.875 95.7672 174.845 95.8385 174.793 95.8916L172.991 97.9354C172.957 97.9508 172.921 97.9587 172.884 97.9587C172.848 97.9587 172.811 97.9508 172.778 97.9354ZM177.306 93.0245C177.271 93.0237 177.236 93.0157 177.205 93.001C177.173 92.9864 177.145 92.9654 177.121 92.9393C177.094 92.9141 177.072 92.8833 177.057 92.8491C177.042 92.8149 177.034 92.778 177.034 92.7406C177.034 92.7032 177.042 92.6663 177.057 92.6321C177.072 92.5979 177.094 92.5672 177.121 92.5419L178.924 90.569C178.977 90.517 179.048 90.4878 179.123 90.4878C179.197 90.4878 179.268 90.517 179.321 90.569C179.349 90.5943 179.371 90.625 179.386 90.6592C179.401 90.6934 179.409 90.7303 179.409 90.7677C179.409 90.8051 179.401 90.842 179.386 90.8762C179.371 90.9104 179.349 90.9411 179.321 90.9664L177.504 92.9393C177.483 92.9757 177.455 93.0071 177.42 93.0316C177.386 93.056 177.347 93.073 177.306 93.0813V93.0245ZM181.833 88.0993C181.774 88.1238 181.708 88.1238 181.649 88.0993C181.621 88.0741 181.599 88.0434 181.584 88.0091C181.569 87.9749 181.562 87.938 181.562 87.9006C181.562 87.8632 181.569 87.8263 181.584 87.7921C181.599 87.7579 181.621 87.7272 181.649 87.7019L183.452 85.729C183.507 85.6761 183.581 85.6465 183.657 85.6465C183.734 85.6465 183.808 85.6761 183.863 85.729C183.915 85.7821 183.944 85.8534 183.944 85.9277C183.944 86.002 183.915 86.0734 183.863 86.1264L182.046 88.0993C182.016 88.1225 181.982 88.1395 181.946 88.1492C181.909 88.159 181.871 88.1613 181.833 88.1561V88.0993ZM186.361 83.1884C186.301 83.2079 186.237 83.2079 186.177 83.1884C186.124 83.1329 186.094 83.0592 186.094 82.9825C186.094 82.9059 186.124 82.8322 186.177 82.7767L187.979 80.818C188.03 80.7616 188.101 80.7276 188.177 80.7236C188.253 80.7196 188.327 80.7459 188.384 80.7967C188.44 80.8476 188.474 80.9187 188.478 80.9946C188.482 81.0704 188.456 81.1448 188.405 81.2013L186.588 83.1742C186.558 83.2017 186.522 83.2223 186.483 83.2346C186.443 83.2468 186.402 83.2504 186.361 83.2451V83.1884ZM165.667 107.658L164.106 106.863C164.038 106.829 163.986 106.77 163.963 106.698C163.939 106.626 163.944 106.548 163.978 106.48C164.012 106.412 164.071 106.361 164.143 106.337C164.215 106.313 164.293 106.318 164.361 106.352L165.341 106.849C165.469 106.496 165.616 106.15 165.781 105.813C165.796 105.78 165.817 105.75 165.844 105.725C165.871 105.701 165.903 105.682 165.938 105.67C165.972 105.658 166.009 105.653 166.045 105.656C166.082 105.658 166.117 105.668 166.15 105.685C166.184 105.699 166.215 105.72 166.241 105.746C166.267 105.773 166.288 105.804 166.301 105.839C166.314 105.873 166.32 105.91 166.319 105.947C166.317 105.984 166.308 106.021 166.292 106.054C166.093 106.48 165.923 106.906 165.766 107.346L165.667 107.658ZM160.501 105.032H160.359L157.875 103.755C157.841 103.738 157.811 103.715 157.787 103.686C157.762 103.658 157.743 103.625 157.732 103.59C157.72 103.554 157.715 103.516 157.718 103.479C157.72 103.442 157.73 103.405 157.747 103.372C157.764 103.338 157.787 103.308 157.815 103.284C157.844 103.259 157.877 103.24 157.912 103.228C157.948 103.216 157.985 103.212 158.023 103.214C158.06 103.217 158.097 103.227 158.13 103.244L160.628 104.521C160.691 104.56 160.738 104.62 160.759 104.691C160.78 104.762 160.774 104.838 160.742 104.904C160.718 104.946 160.682 104.981 160.64 105.003C160.597 105.026 160.549 105.036 160.501 105.032ZM154.255 101.839C154.214 101.852 154.169 101.852 154.128 101.839L151.63 100.561C151.564 100.525 151.515 100.465 151.494 100.393C151.473 100.321 151.481 100.244 151.516 100.178C151.533 100.146 151.555 100.118 151.583 100.095C151.61 100.071 151.642 100.054 151.677 100.043C151.711 100.033 151.747 100.029 151.783 100.033C151.819 100.037 151.854 100.047 151.885 100.064L154.383 101.328C154.449 101.364 154.498 101.423 154.522 101.494C154.546 101.565 154.542 101.643 154.511 101.711C154.477 101.742 154.436 101.764 154.391 101.776C154.347 101.789 154.301 101.791 154.255 101.782V101.839ZM148.024 98.6593C147.983 98.6715 147.938 98.6715 147.897 98.6593L145.399 97.3819C145.365 97.3668 145.336 97.345 145.311 97.318C145.286 97.291 145.268 97.2593 145.256 97.2248C145.244 97.1902 145.239 97.1537 145.242 97.1173C145.244 97.0808 145.254 97.0453 145.271 97.0129C145.287 96.9791 145.311 96.9491 145.339 96.9244C145.367 96.8997 145.4 96.8808 145.436 96.8689C145.471 96.857 145.509 96.8524 145.547 96.8551C145.584 96.8579 145.621 96.8681 145.654 96.8851L148.152 98.1626C148.186 98.1789 148.216 98.2021 148.241 98.2308C148.265 98.2594 148.283 98.2929 148.294 98.329C148.305 98.3651 148.308 98.403 148.303 98.4404C148.298 98.4777 148.285 98.5136 148.266 98.5458C148.234 98.5749 148.195 98.5955 148.152 98.6054C148.11 98.6153 148.066 98.6143 148.024 98.6025V98.6593ZM141.779 95.4658H141.652L139.097 94.1032C139.068 94.0754 139.046 94.0423 139.031 94.0058C139.015 93.9692 139.007 93.9299 139.007 93.8903C139.007 93.8506 139.015 93.8114 139.031 93.7748C139.046 93.7383 139.068 93.7051 139.097 93.6774C139.113 93.6437 139.136 93.6136 139.165 93.5889C139.193 93.5642 139.226 93.5453 139.262 93.5334C139.297 93.5216 139.335 93.5169 139.372 93.5197C139.41 93.5224 139.446 93.5326 139.48 93.5496L141.964 94.8271C141.998 94.8437 142.028 94.8668 142.052 94.8951C142.077 94.9234 142.096 94.9563 142.108 94.992C142.12 95.0276 142.124 95.0653 142.122 95.1028C142.119 95.1402 142.109 95.1768 142.092 95.2103C142.075 95.277 142.033 95.3347 141.975 95.3717C141.917 95.4086 141.847 95.422 141.779 95.409V95.4658ZM135.548 92.258H135.421L132.923 90.9806C132.889 90.964 132.859 90.9409 132.834 90.9126C132.809 90.8843 132.79 90.8513 132.779 90.8157C132.767 90.78 132.762 90.7424 132.765 90.7049C132.768 90.6674 132.778 90.6309 132.795 90.5974C132.831 90.5319 132.89 90.4824 132.961 90.4587C133.032 90.435 133.11 90.4389 133.178 90.4696L135.676 91.7471C135.71 91.7637 135.74 91.7868 135.765 91.8151C135.789 91.8434 135.808 91.8763 135.82 91.912C135.832 91.9476 135.837 91.9853 135.834 92.0228C135.831 92.0602 135.821 92.0968 135.804 92.1303C135.775 92.1713 135.737 92.2044 135.692 92.2268C135.648 92.2491 135.598 92.2598 135.548 92.258ZM129.317 89.0645C129.276 89.0797 129.231 89.0797 129.19 89.0645L126.692 87.7871C126.658 87.7705 126.628 87.7473 126.603 87.719C126.578 87.6907 126.559 87.6578 126.548 87.6221C126.536 87.5865 126.531 87.5488 126.534 87.5114C126.537 87.4739 126.547 87.4373 126.564 87.4038C126.6 87.3382 126.66 87.2895 126.732 87.2682C126.804 87.2469 126.881 87.2549 126.947 87.2903L129.445 88.5677C129.477 88.5841 129.505 88.6068 129.529 88.6344C129.552 88.662 129.569 88.6939 129.58 88.7283C129.59 88.7627 129.594 88.7988 129.59 88.8346C129.587 88.8704 129.576 88.9052 129.559 88.9367C129.529 88.9709 129.492 88.9968 129.449 89.0117C129.407 89.0267 129.362 89.0302 129.317 89.0219V89.0645ZM123.072 85.8851H122.944L120.446 84.6219C120.383 84.5834 120.337 84.5229 120.316 84.4521C120.295 84.3813 120.301 84.3053 120.333 84.2387C120.349 84.205 120.373 84.1749 120.401 84.1502C120.429 84.1255 120.462 84.1066 120.498 84.0947C120.533 84.0828 120.571 84.0782 120.609 84.0809C120.646 84.0837 120.683 84.0939 120.716 84.1109L123.2 85.3884C123.234 85.4049 123.264 85.4281 123.288 85.4564C123.313 85.4847 123.332 85.5176 123.344 85.5533C123.356 85.5889 123.36 85.6266 123.358 85.664C123.355 85.7015 123.345 85.7381 123.328 85.7716C123.293 85.8023 123.253 85.8247 123.208 85.837C123.164 85.8493 123.117 85.8512 123.072 85.8425V85.8851ZM116.841 82.6916H116.713L114.215 81.4142C114.148 81.3803 114.096 81.3209 114.072 81.249C114.048 81.1771 114.054 81.0987 114.088 81.0309C114.122 80.9632 114.181 80.9117 114.253 80.8877C114.325 80.8637 114.403 80.8693 114.471 80.9032L116.969 82.1806C117.003 82.1972 117.033 82.2203 117.057 82.2486C117.082 82.277 117.101 82.3099 117.113 82.3455C117.125 82.3812 117.129 82.4188 117.127 82.4563C117.124 82.4938 117.114 82.5303 117.097 82.5638C117.064 82.5971 117.024 82.6221 116.979 82.6369C116.935 82.6517 116.888 82.6558 116.841 82.649V82.6916ZM110.596 79.4838H110.468L107.984 78.2064C107.951 78.1898 107.921 78.1667 107.896 78.1384C107.871 78.1101 107.852 78.0771 107.841 78.0415C107.829 78.0058 107.824 77.9682 107.827 77.9307C107.83 77.8932 107.84 77.8567 107.857 77.8232C107.893 77.7577 107.952 77.7082 108.023 77.6845C108.094 77.6608 108.172 77.6647 108.24 77.6954L110.738 78.9729C110.801 79.0113 110.848 79.0718 110.869 79.1426C110.89 79.2134 110.883 79.2895 110.852 79.3561C110.825 79.3992 110.787 79.434 110.742 79.4566C110.697 79.4792 110.646 79.4886 110.596 79.4838ZM104.365 76.2903C104.324 76.3034 104.279 76.3034 104.237 76.2903L101.739 75.0129C101.705 74.9966 101.675 74.9733 101.651 74.9447C101.626 74.916 101.608 74.8825 101.598 74.8464C101.587 74.8103 101.584 74.7724 101.589 74.7351C101.594 74.6977 101.606 74.6618 101.626 74.6296C101.662 74.5677 101.72 74.5215 101.788 74.5005C101.856 74.4794 101.93 74.485 101.995 74.5161L104.493 75.7935C104.527 75.8101 104.557 75.8332 104.581 75.8615C104.606 75.8899 104.625 75.9228 104.637 75.9584C104.649 75.9941 104.653 76.0317 104.651 76.0692C104.648 76.1067 104.638 76.1432 104.621 76.1767C104.587 76.2091 104.547 76.2335 104.502 76.2483C104.458 76.263 104.411 76.2677 104.365 76.2619V76.2903ZM98.1341 73.1109H98.0064L95.5083 71.8335C95.4748 71.8167 95.4449 71.7935 95.4203 71.7652C95.3957 71.7368 95.3769 71.7039 95.3651 71.6684C95.3532 71.6328 95.3485 71.5952 95.3511 71.5578C95.3538 71.5204 95.3638 71.4838 95.3806 71.4503C95.3974 71.4167 95.4206 71.3868 95.4489 71.3622C95.4773 71.3377 95.5102 71.3189 95.5457 71.307C95.5813 71.2952 95.6189 71.2904 95.6563 71.2931C95.6937 71.2958 95.7303 71.3058 95.7638 71.3225L98.2619 72.6C98.2958 72.6163 98.3259 72.6395 98.3504 72.6682C98.3748 72.6968 98.3929 72.7303 98.4036 72.7664C98.4143 72.8025 98.4173 72.8404 98.4125 72.8778C98.4076 72.9151 98.395 72.951 98.3754 72.9832C98.3478 73.0199 98.3109 73.0485 98.2684 73.066C98.226 73.0835 98.1796 73.0892 98.1341 73.0825V73.1109ZM91.889 69.9174H91.7612L89.2632 68.64C89.2001 68.6015 89.1536 68.541 89.1326 68.4702C89.1117 68.3994 89.1177 68.3233 89.1496 68.2567C89.1662 68.223 89.1893 68.1929 89.2176 68.1682C89.246 68.1435 89.2789 68.1247 89.3145 68.1128C89.3502 68.1009 89.3878 68.0962 89.4253 68.099C89.4628 68.1018 89.4993 68.112 89.5328 68.129L92.0167 69.4064C92.0504 69.423 92.0805 69.4461 92.1052 69.4744C92.1299 69.5028 92.1488 69.5357 92.1606 69.5713C92.1725 69.607 92.1772 69.6446 92.1744 69.6821C92.1717 69.7196 92.1615 69.7561 92.1444 69.7896C92.1146 69.8275 92.0752 69.8567 92.0303 69.8742C91.9853 69.8917 91.9365 69.8968 91.889 69.889V69.9174ZM85.658 66.7096C85.6164 66.7227 85.5718 66.7227 85.5303 66.7096L83.0322 65.4322C82.9985 65.4156 82.9684 65.3925 82.9437 65.3642C82.919 65.3359 82.9001 65.3029 82.8883 65.2673C82.8764 65.2316 82.8717 65.194 82.8745 65.1565C82.8772 65.119 82.8874 65.0825 82.9045 65.049C82.9405 64.9834 83.0009 64.9346 83.0727 64.9133C83.1445 64.8921 83.2217 64.9 83.2877 64.9354L85.7857 66.1987C85.8195 66.2153 85.8495 66.2384 85.8742 66.2667C85.899 66.295 85.9178 66.3279 85.9297 66.3636C85.9416 66.3992 85.9463 66.4369 85.9435 66.4744C85.9407 66.5118 85.9305 66.5484 85.9135 66.5819C85.885 66.6229 85.8467 66.656 85.802 66.6784C85.7574 66.7007 85.7079 66.7114 85.658 66.7096ZM79.4838 63.5161C79.4376 63.5303 79.3881 63.5303 79.3419 63.5161L76.858 62.2387C76.8248 62.2235 76.795 62.2018 76.7704 62.1748C76.7458 62.1478 76.727 62.116 76.7151 62.0815C76.7031 62.047 76.6983 62.0104 76.7009 61.974C76.7035 61.9376 76.7135 61.9021 76.7303 61.8696C76.7469 61.8359 76.77 61.8058 76.7983 61.7811C76.8266 61.7564 76.8595 61.7376 76.8952 61.7257C76.9308 61.7138 76.9685 61.7091 77.006 61.7119C77.0434 61.7147 77.08 61.7249 77.1135 61.7419L79.6115 63.0193C79.6746 63.0578 79.7211 63.1183 79.7421 63.1891C79.7631 63.2599 79.757 63.3359 79.7251 63.4025C79.6992 63.4419 79.663 63.4733 79.6204 63.4933C79.5779 63.5133 79.5306 63.5212 79.4838 63.5161ZM73.2386 60.3225H73.1109L70.6128 59.0451C70.5472 59.0091 70.4985 58.9487 70.4772 58.8769C70.4559 58.8051 70.4639 58.7278 70.4993 58.6619C70.5144 58.6287 70.5362 58.5989 70.5632 58.5743C70.5902 58.5497 70.6219 58.5309 70.6564 58.519C70.6909 58.507 70.7275 58.5022 70.7639 58.5048C70.8004 58.5074 70.8359 58.5174 70.8683 58.5342L73.3664 59.8116C73.4001 59.8282 73.4302 59.8513 73.4549 59.8796C73.4796 59.9079 73.4984 59.9408 73.5103 59.9765C73.5222 60.0121 73.5269 60.0498 73.5241 60.0873C73.5213 60.1248 73.5111 60.1613 73.4941 60.1948C73.4611 60.2451 73.4136 60.2843 73.3578 60.3071C73.3021 60.3299 73.2407 60.3353 73.1819 60.3225H73.2386Z" fill="#182837"/>
<path d="M154.823 28.5006C156.243 29.4374 156.626 30.8426 155.462 31.9213C154.502 32.5827 153.393 32.9973 152.235 33.1285C151.076 33.2598 149.903 33.1035 148.819 32.6735C148.485 32.5385 148.163 32.3771 147.854 32.191C146.435 31.2542 146.052 29.849 147.216 28.7703C148.177 28.1112 149.286 27.6991 150.445 27.5704C151.603 27.4417 152.775 27.6003 153.858 28.0323C154.193 28.1598 154.516 28.3166 154.823 28.5006Z" fill="#182837"/>
<path d="M151.544 31.0129C150.576 31.0229 149.613 30.8545 148.706 30.5161C148.355 30.3821 148.018 30.2158 147.698 30.0193C147.32 29.8074 146.995 29.5117 146.749 29.155C146.503 28.7982 146.342 28.3899 146.279 27.9613C146.257 27.6171 146.318 27.2728 146.456 26.9569C146.595 26.6409 146.806 26.3625 147.073 26.1445C148.071 25.4468 149.227 25.0088 150.436 24.87C151.645 24.7312 152.87 24.8961 154 25.3497C154.355 25.4837 154.697 25.65 155.022 25.8464C155.398 26.057 155.721 26.3504 155.967 26.7046C156.213 27.0587 156.375 27.4642 156.441 27.8903C156.466 28.2336 156.409 28.5779 156.273 28.8941C156.137 29.2103 155.927 29.4892 155.66 29.7071C154.487 30.6179 153.028 31.0809 151.544 31.0129ZM151.09 25.3355C149.767 25.2688 148.463 25.6765 147.414 26.4851C147.205 26.6546 147.04 26.8723 146.934 27.1195C146.827 27.3668 146.783 27.6362 146.804 27.9045C146.869 28.2482 147.011 28.5726 147.22 28.853C147.429 29.1334 147.699 29.3624 148.01 29.5226C148.298 29.702 148.602 29.8541 148.919 29.9768C149.954 30.3926 151.076 30.5467 152.185 30.4254C153.294 30.3041 154.356 29.9111 155.277 29.2813C155.476 29.119 155.635 28.9128 155.741 28.6788C155.847 28.4449 155.897 28.1895 155.888 27.9329C155.821 27.5878 155.677 27.2626 155.465 26.9821C155.254 26.7016 154.981 26.4733 154.667 26.3148C154.381 26.1325 154.076 25.9803 153.759 25.8606C152.903 25.5518 152 25.398 151.09 25.4064V25.3355Z" fill="#EEF0F2"/>
<path d="M130.794 184.261L70.528 149.898C60.5763 144.214 52.3808 135.9 46.8389 125.868C36.6054 107.332 22.3551 78.0645 21.8299 76.3755C21.7765 76.1918 21.7608 75.9993 21.7836 75.8095C21.8065 75.6196 21.8674 75.4363 21.9629 75.2706C22.0583 75.1049 22.1863 74.9602 22.339 74.8452C22.4918 74.7302 22.6662 74.6472 22.8518 74.6013C23.1073 74.5379 23.3753 74.5469 23.6259 74.6271C23.8766 74.7073 24.1 74.8556 24.2712 75.0555L28.5293 79.0722L120.972 130.921C121.496 130.033 122.216 129.276 123.077 128.708C123.938 128.14 124.917 127.776 125.94 127.643L135.009 129.474L142.106 115.081C142.658 113.914 143.502 112.909 144.556 112.163C145.611 111.417 146.839 110.955 148.124 110.823L168.776 113.662L165.27 165.766C165.008 169.669 163.759 173.441 161.639 176.728C159.52 180.016 156.599 182.71 153.153 184.559C149.706 186.408 145.846 187.351 141.935 187.299C138.024 187.246 134.19 186.201 130.794 184.261Z" fill="#8A818F"/>
<path opacity="0.7" d="M164.347 113.094L161.267 158.357C160.075 175.39 140.956 185.226 125.67 176.809L63.3174 142.319C59.8672 140.401 56.5987 138.172 53.5522 135.662C58.3364 141.372 64.1049 146.18 70.5845 149.856L130.85 184.218C134.243 186.154 138.072 187.197 141.977 187.25C145.883 187.303 149.739 186.363 153.182 184.519C156.626 182.675 159.545 179.988 161.667 176.708C163.788 173.428 165.043 169.663 165.312 165.766L168.818 113.662L164.347 113.094Z" fill="#5A5C71"/>
<path d="M88.8943 146.449C89.4195 148.124 88.7524 149.401 87.1627 149.458C86.0046 149.338 84.8939 148.934 83.9285 148.283C82.9632 147.632 82.1728 146.754 81.6272 145.725C81.4522 145.409 81.3095 145.076 81.2014 144.732C80.6762 143.057 81.3433 141.779 82.933 141.723C84.0925 141.844 85.2041 142.25 86.1695 142.904C87.135 143.557 87.9246 144.439 88.4685 145.47C88.6433 145.781 88.786 146.109 88.8943 146.449Z" fill="#182837"/>
<path opacity="0.7" d="M159.28 114.201L150.338 159.621L136.57 129.658L146.123 112.754L159.28 114.201Z" fill="#5A5C71"/>
<path opacity="0.5" d="M133.916 150.21C135.009 154.468 140.034 171.926 140.034 171.926C140.034 171.926 130.737 156.555 129.686 152.85C128.267 148.053 124.96 128.721 124.96 128.721C124.96 128.721 132.823 145.952 133.916 150.21Z" fill="#5A5C71"/>
<path d="M24.8812 76.9007C23.8356 76.5018 22.8205 76.0274 21.8438 75.4813C21.9316 75.2566 22.0753 75.0579 22.2613 74.9042C22.4473 74.7504 22.6694 74.6466 22.9066 74.6026C23.1439 74.5585 23.3884 74.5757 23.6172 74.6525C23.846 74.7292 24.0514 74.8631 24.2141 75.0413L26.6837 77.3548C26.0681 77.2697 25.4637 77.1174 24.8812 76.9007Z" fill="url(#paint1_linear_30_70)"/>
<path d="M26.8118 82.0103L118.687 132.979C119.48 133.415 120.381 133.614 121.284 133.554C122.187 133.493 123.054 133.176 123.782 132.639C124.705 131.943 125.809 131.529 126.962 131.446L132.809 132.61C133.819 132.806 134.864 132.668 135.789 132.217C136.713 131.767 137.466 131.028 137.933 130.112L143.611 118.914C144.192 117.731 145.068 116.719 146.155 115.973C147.241 115.227 148.501 114.773 149.813 114.655L165.043 116.714C165.489 116.771 165.941 116.736 166.373 116.613C166.805 116.489 167.207 116.279 167.555 115.995C167.903 115.71 168.19 115.358 168.397 114.96C168.605 114.561 168.729 114.124 168.762 113.676L148.11 110.837C146.825 110.97 145.597 111.431 144.542 112.177C143.488 112.923 142.644 113.928 142.092 115.095L135.96 127.543C135.683 128.101 135.229 128.551 134.67 128.826C134.111 129.1 133.477 129.183 132.866 129.062L125.94 127.643C124.541 127.762 123.23 128.37 122.235 129.36C121.786 129.781 121.212 130.045 120.601 130.111C119.989 130.178 119.372 130.044 118.843 129.729L28.5293 79.0722L24.2712 75.0555C24.1 74.8556 23.8766 74.7073 23.6259 74.6271C23.3753 74.5469 23.1073 74.5379 22.8518 74.6013C22.6662 74.6472 22.4918 74.7302 22.339 74.8452C22.1863 74.9602 22.0583 75.1049 21.9629 75.2706C21.8674 75.4363 21.8065 75.6196 21.7836 75.8095C21.7608 75.9993 21.7765 76.1918 21.8299 76.3755V76.5316C22.8024 78.8819 24.5643 80.8194 26.8118 82.0103Z" fill="url(#paint2_linear_30_70)"/>
<path d="M119.921 124.634C118.784 124.635 117.665 124.347 116.671 123.796C102.009 115.578 28.9122 74.5587 28.387 74.289C28.3524 74.2796 28.3201 74.2629 28.2923 74.2401C28.2645 74.2173 28.2418 74.1889 28.2257 74.1568C28.2096 74.1246 28.2005 74.0895 28.199 74.0535C28.1974 74.0176 28.2035 73.9818 28.2167 73.9484C28.2425 73.876 28.2954 73.8163 28.3641 73.782C28.4329 73.7476 28.5123 73.7411 28.5857 73.7639C28.5857 73.7639 28.6851 73.7639 116.941 123.299C117.941 123.832 119.063 124.094 120.196 124.059C121.329 124.024 122.433 123.694 123.399 123.101C124.17 122.65 125.034 122.383 125.925 122.32L129.885 123.115C131.286 123.4 132.742 123.214 134.026 122.585C135.31 121.956 136.349 120.919 136.982 119.637L141.765 109.901C142.348 108.7 143.227 107.667 144.32 106.899C145.413 106.132 146.683 105.656 148.01 105.515L152.155 106.083C152.192 106.086 152.227 106.097 152.26 106.115C152.292 106.133 152.321 106.157 152.343 106.186C152.366 106.216 152.382 106.249 152.391 106.285C152.4 106.321 152.402 106.358 152.396 106.395C152.382 106.47 152.342 106.537 152.281 106.585C152.221 106.632 152.146 106.655 152.07 106.65L148.01 106.083C146.798 106.23 145.642 106.68 144.65 107.392C143.658 108.104 142.861 109.055 142.333 110.156L137.55 119.879C136.856 121.266 135.726 122.387 134.334 123.072C132.943 123.756 131.365 123.966 129.843 123.668L125.925 122.874C125.133 122.936 124.366 123.178 123.683 123.583C122.54 124.252 121.245 124.613 119.921 124.634Z" fill="#EEF0F2"/>
<path d="M146.194 70.1445C145.734 70.9427 145.197 71.6938 144.59 72.3871C143.823 73.2529 142.915 74.2607 141.851 75.4103C140.786 76.56 139.594 77.8658 138.146 79.5265C136.698 81.1871 134.981 83.2594 132.994 85.7858L131.305 84.8348C132.44 81.7974 133.32 79.2426 133.973 77.1561C134.626 75.0697 135.137 73.3239 135.534 71.9045C135.932 70.4852 136.287 69.3213 136.67 68.0865C136.915 67.1471 137.253 66.2343 137.678 65.3613C137.969 64.8166 138.373 64.34 138.862 63.9631C139.351 63.5863 139.915 63.3178 140.516 63.1755C141.131 63.0104 141.772 62.968 142.402 63.0508C143.033 63.1336 143.642 63.34 144.192 63.6581C145.307 64.2667 146.142 65.2845 146.52 66.4968C146.729 67.0929 146.808 67.7268 146.752 68.356C146.695 68.9851 146.505 69.595 146.194 70.1445ZM132.554 94.2736C132.258 94.8119 131.853 95.2821 131.364 95.6538C130.875 96.0254 130.313 96.2902 129.715 96.431C128.491 96.7456 127.192 96.5759 126.09 95.9572C124.987 95.3386 124.166 94.3187 123.796 93.1097C123.599 92.5229 123.528 91.9013 123.586 91.2851C123.645 90.6689 123.833 90.0719 124.137 89.5329C124.435 88.9952 124.841 88.5248 125.33 88.1511C125.818 87.7775 126.379 87.5086 126.976 87.3613C127.586 87.19 128.224 87.1419 128.852 87.2199C129.481 87.2979 130.088 87.5003 130.638 87.8155C131.185 88.1136 131.666 88.5185 132.054 89.0061C132.441 89.4937 132.727 90.0541 132.894 90.6542C133.115 91.2536 133.204 91.8935 133.155 92.5303C133.106 93.1672 132.92 93.786 132.611 94.3445L132.554 94.2736Z" fill="white"/>
<path d="M128.466 98.3896C127.361 98.3842 126.288 98.024 125.404 97.3621C124.519 96.7002 123.871 95.7717 123.555 94.7135C123.345 94.0917 123.269 93.4323 123.333 92.7791C123.396 92.1258 123.598 91.4935 123.924 90.9238C124.244 90.3472 124.68 89.8436 125.206 89.4452C125.731 89.0469 126.334 88.7625 126.976 88.6103C127.618 88.4303 128.29 88.379 128.953 88.4594C129.615 88.5397 130.255 88.7502 130.836 89.0787C131.419 89.3987 131.931 89.8324 132.343 90.3542C132.756 90.8759 133.059 91.4751 133.235 92.1161C133.442 92.7432 133.516 93.4066 133.452 94.064C133.389 94.7214 133.189 95.3583 132.866 95.9342C132.547 96.5088 132.111 97.0096 131.585 97.4034C131.059 97.7973 130.455 98.0753 129.814 98.2193C129.373 98.3308 128.921 98.388 128.466 98.3896ZM128.366 88.9935C127.946 88.9973 127.526 89.0497 127.117 89.1496C126.55 89.2831 126.017 89.5339 125.553 89.886C125.088 90.238 124.703 90.6834 124.421 91.1935C124.129 91.6957 123.949 92.2548 123.893 92.8328C123.836 93.4108 123.905 93.9941 124.094 94.5432C124.269 95.1177 124.556 95.6518 124.938 96.1147C125.321 96.5776 125.791 96.9601 126.323 97.24C126.834 97.5334 127.398 97.7221 127.983 97.7952C128.568 97.8683 129.161 97.8243 129.729 97.6658C130.297 97.5432 130.832 97.2997 131.297 96.9519C131.762 96.6041 132.147 96.1602 132.426 95.6503C132.708 95.1361 132.878 94.5679 132.925 93.9831C132.971 93.3983 132.893 92.8103 132.696 92.258C132.539 91.6928 132.271 91.1645 131.908 90.7039C131.545 90.2433 131.094 89.8597 130.581 89.5754C129.905 89.1944 129.142 88.994 128.366 88.9935ZM132.994 87.4748H132.866L131.177 86.538C131.116 86.5048 131.069 86.4503 131.045 86.3849C131.022 86.3195 131.023 86.2477 131.049 86.1832C132.17 83.16 133.065 80.5909 133.703 78.5329C134.342 76.4748 134.867 74.7006 135.265 73.2813C135.662 71.8619 136.003 70.7264 136.4 69.449C136.667 68.5043 137.024 67.5871 137.465 66.7096C137.775 66.1217 138.209 65.6073 138.735 65.2008C139.261 64.7944 139.869 64.5055 140.516 64.3535C141.164 64.1779 141.84 64.1327 142.505 64.2204C143.17 64.3081 143.811 64.527 144.391 64.8645C145.582 65.5126 146.469 66.6039 146.861 67.9019C147.074 68.5304 147.152 69.197 147.088 69.8577C147.024 70.5184 146.821 71.158 146.492 71.7342C145.998 72.5389 145.422 73.2904 144.774 73.9767C144.065 74.7858 143.156 75.7793 142.021 77.0142C140.885 78.249 139.792 79.4838 138.373 81.1161C136.954 82.7484 135.208 84.849 133.221 87.3613C133.194 87.3957 133.159 87.4238 133.12 87.4434C133.081 87.463 133.037 87.4738 132.994 87.4748ZM131.659 86.0555L132.923 86.7651C134.839 84.3806 136.542 82.3225 137.933 80.7471C139.324 79.1716 140.616 77.7096 141.637 76.6167C142.659 75.5238 143.667 74.4167 144.377 73.6077C144.988 72.945 145.53 72.2222 145.995 71.4503C146.289 70.9438 146.47 70.3798 146.527 69.7969C146.583 69.2139 146.513 68.6257 146.321 68.0722C145.959 66.9179 145.17 65.9457 144.114 65.3547C143.059 64.7636 141.817 64.5984 140.644 64.8929C140.074 65.0246 139.539 65.2763 139.074 65.6312C138.609 65.986 138.225 66.436 137.947 66.9509C137.533 67.7843 137.196 68.6537 136.939 69.5484C136.556 70.8116 136.173 72.089 135.818 73.3522C135.463 74.6155 134.839 76.6451 134.243 78.6606C133.646 80.6761 132.752 83.1742 131.659 86.1122V86.0555Z" fill="#182837"/>
<path d="M73.8915 54.7587C74.161 54.1783 74.5432 53.6573 75.016 53.226C75.4887 52.7947 76.0425 52.4617 76.6451 52.2464C77.8361 51.7559 79.1727 51.7559 80.3638 52.2464C80.9379 52.4807 81.4575 52.831 81.8898 53.2756C82.3221 53.7201 82.6579 54.2492 82.876 54.8297C83.18 55.7531 83.3939 56.7038 83.5148 57.6684C83.7135 58.9458 83.898 60.2658 84.0683 61.6142C84.2386 62.9626 84.5083 64.8929 84.8348 67.0503C85.1612 69.2077 85.6722 71.8619 86.3393 75.0271L84.5367 75.7226C82.9328 72.8839 81.5419 70.6129 80.3496 68.7677C79.1573 66.9226 78.0644 65.4039 77.2838 64.1832C76.5031 62.9626 75.6373 61.7561 75.0128 60.7768C74.4975 60.0184 74.06 59.21 73.707 58.3639C73.4765 57.785 73.3737 57.1633 73.4056 56.5411C73.4374 55.9189 73.6032 55.3109 73.8915 54.7587ZM83.827 80.7045C84.3506 79.5489 85.3106 78.6477 86.4969 78.1982C87.6833 77.7487 88.9994 77.7873 90.1573 78.3058C90.733 78.5387 91.253 78.8904 91.6835 79.338C92.114 79.7855 92.4451 80.3189 92.6554 80.9032C92.8863 81.477 92.9894 82.0942 92.9575 82.7119C92.9256 83.3296 92.7596 83.933 92.4709 84.48C91.9356 85.629 90.9733 86.5239 89.7885 86.9745C88.6037 87.4251 87.2899 87.3958 86.1264 86.8929C85.5432 86.6684 85.0136 86.3242 84.5716 85.8824C84.1297 85.4406 83.7853 84.911 83.5606 84.3279C83.3359 83.7448 83.236 83.1211 83.2672 82.497C83.2984 81.8729 83.4601 81.2623 83.7419 80.7045H83.827Z" fill="white"/>
<path d="M87.8441 88.9936C87.1458 88.9891 86.4556 88.8443 85.8144 88.5678C85.2012 88.327 84.6454 87.9599 84.1833 87.4905C83.7211 87.021 83.3629 86.4595 83.1318 85.8426C82.8984 85.2277 82.7943 84.5713 82.8261 83.9143C82.8578 83.2574 83.0247 82.6141 83.3163 82.0245C83.5875 81.4145 83.9785 80.8652 84.4662 80.4092C84.9538 79.9533 85.5282 79.6 86.155 79.3703C86.7778 79.1299 87.442 79.0149 88.1094 79.0319C88.7769 79.049 89.4343 79.1977 90.044 79.4697C90.6578 79.7136 91.2135 80.0833 91.6756 80.5551C92.1376 81.027 92.4957 81.5904 92.7266 82.209C92.9645 82.8211 93.0697 83.4766 93.0355 84.1323C93.0012 84.788 92.8282 85.429 92.5279 86.0129C92.251 86.616 91.8576 87.1584 91.3705 87.609C90.8833 88.0596 90.312 88.4095 89.6892 88.6387C89.1035 88.8771 88.4764 88.9977 87.8441 88.9936ZM88.0002 79.5974C87.4474 79.5999 86.8995 79.7009 86.3821 79.8955C85.8159 80.106 85.2985 80.4299 84.8616 80.8472C84.4248 81.2645 84.0777 81.7665 83.8415 82.3226C83.5967 82.8394 83.4615 83.4013 83.4444 83.9728C83.4273 84.5444 83.5287 85.1134 83.7421 85.6439C83.9395 86.1732 84.2445 86.6558 84.6378 87.0614C85.0311 87.4669 85.5042 87.7865 86.0273 88C87.1287 88.4466 88.3607 88.4466 89.4621 88C90.5853 87.5859 91.4988 86.7439 92.0028 85.6581C92.2677 85.1634 92.4272 84.6191 92.4712 84.0597C92.5151 83.5002 92.4426 82.9378 92.2582 82.4078C92.0535 81.8624 91.7368 81.3659 91.3285 80.9504C90.9203 80.5348 90.4296 80.2093 89.8879 79.9948C89.2937 79.7308 88.6504 79.5954 88.0002 79.5974ZM84.3241 77.4684C84.2753 77.4663 84.2278 77.4523 84.1857 77.4275C84.1436 77.4028 84.1083 77.3681 84.0828 77.3265C82.4789 74.4877 81.0879 72.2026 79.9241 70.3858C78.7602 68.569 77.7099 66.9936 76.8724 65.7729C76.035 64.5523 75.1976 63.3032 74.6015 62.3665C74.0736 61.5909 73.6265 60.7634 73.2673 59.8968C73.0252 59.2808 72.9178 58.6201 72.952 57.9592C72.9863 57.2982 73.1615 56.6522 73.466 56.0645C74.0325 54.8485 75.0509 53.9014 76.3047 53.4245C76.925 53.1645 77.5908 53.0306 78.2634 53.0306C78.936 53.0306 79.6018 53.1645 80.2221 53.4245C80.8355 53.6662 81.3906 54.0353 81.8506 54.5076C82.3106 54.9798 82.665 55.5444 82.8905 56.1639C83.2024 57.0859 83.4211 58.0369 83.5434 59.0026C83.7563 60.3368 83.9408 61.6568 84.1111 62.9626C84.2815 64.2684 84.5511 66.2413 84.8776 68.3845C85.2041 70.5278 85.715 73.2103 86.3679 76.3471C86.383 76.4129 86.3741 76.4819 86.3429 76.5417C86.3117 76.6015 86.2602 76.6483 86.1976 76.6736L84.395 77.3548L84.3241 77.4684ZM78.2066 53.6232C77.6283 53.6272 77.0557 53.7378 76.5176 53.9497C75.3815 54.367 74.4542 55.2128 73.9344 56.3058C73.6713 56.8291 73.5238 57.4028 73.5017 57.9881C73.4797 58.5733 73.5837 59.1565 73.8066 59.6981C74.1555 60.53 74.5883 61.3242 75.0982 62.0684C75.6944 62.991 76.4324 64.0981 77.355 65.4607C78.2776 66.8232 79.2286 68.2994 80.4066 70.0736C81.5847 71.8477 82.9189 74.1187 84.466 76.8297L85.8853 76.3187C85.2466 73.2671 84.7499 70.6413 84.466 68.5548C84.1821 66.4684 83.8699 64.5807 83.6853 63.1187C83.5008 61.6568 83.3305 60.5071 83.1318 59.1729C82.9451 58.2327 82.6743 57.3111 82.3228 56.4194C82.1227 55.8736 81.8093 55.3764 81.4032 54.9605C80.9971 54.5446 80.5075 54.2195 79.9666 54.0065C79.4116 53.7621 78.813 53.6318 78.2066 53.6232Z" fill="#182837"/>
<path opacity="0.55" d="M188.689 169.67C188.689 170.521 187.113 171.203 185.183 171.203C183.253 171.203 181.677 170.521 181.677 169.67C181.677 168.818 183.239 168.108 185.183 168.108C187.128 168.108 188.689 168.804 188.689 169.67Z" fill="#5A5C71"/>
<path d="M190.52 160.188C190.52 161.233 190.21 162.254 189.63 163.122C189.05 163.99 188.225 164.667 187.261 165.067C186.296 165.466 185.234 165.571 184.21 165.367C183.186 165.163 182.245 164.66 181.506 163.922C180.768 163.184 180.265 162.243 180.061 161.219C179.858 160.194 179.962 159.133 180.362 158.168C180.762 157.203 181.438 156.378 182.307 155.798C183.175 155.218 184.196 154.908 185.24 154.908C186.64 154.908 187.983 155.465 188.973 156.455C189.964 157.445 190.52 158.788 190.52 160.188Z" fill="#182837"/>
<path d="M189.399 159.436C189.072 159.961 187.98 159.308 186.787 158.499C185.595 157.69 184.516 157.08 184.857 156.512C185.198 155.945 186.745 155.803 188.008 156.612C189.271 157.421 189.74 158.968 189.399 159.436ZM109.688 182.146C93.266 182.146 77.0428 178.853 64.7086 172.437C54.2622 166.959 47.6764 159.663 46.3422 151.956C45.2493 145.924 47.2648 139.849 52.1615 134.37L52.5873 134.754C47.8041 140.09 45.8454 146.009 46.9099 151.786C48.3293 159.337 54.688 166.462 64.9783 171.856C86.4673 183.097 120.333 184.715 145.541 175.716C148.684 174.602 151.748 173.274 154.71 171.742C165.142 166.277 171.657 159.067 173.048 151.445C174.112 145.612 172.182 139.735 167.484 134.413L167.91 134.03C172.736 139.452 174.709 145.484 173.587 151.502C172.168 159.308 165.554 166.661 154.965 172.21C151.961 173.747 148.86 175.089 145.683 176.227C134.101 180.205 121.933 182.206 109.688 182.146ZM196.098 115.237C195.349 115.237 194.616 115.015 193.993 114.599C193.37 114.182 192.884 113.59 192.597 112.898C192.31 112.206 192.235 111.444 192.381 110.708C192.528 109.973 192.889 109.298 193.419 108.768C193.949 108.238 194.624 107.877 195.359 107.731C196.094 107.585 196.856 107.66 197.549 107.947C198.241 108.233 198.833 108.719 199.249 109.342C199.666 109.966 199.888 110.698 199.888 111.448C199.888 112.453 199.489 113.417 198.778 114.127C198.067 114.838 197.103 115.237 196.098 115.237ZM196.098 109.092C195.629 109.092 195.17 109.231 194.78 109.492C194.39 109.753 194.086 110.124 193.907 110.558C193.728 110.992 193.682 111.469 193.775 111.93C193.867 112.39 194.094 112.812 194.427 113.143C194.76 113.474 195.184 113.699 195.645 113.788C196.105 113.878 196.582 113.829 197.015 113.648C197.448 113.466 197.817 113.16 198.076 112.768C198.335 112.377 198.471 111.917 198.469 111.448C198.465 110.822 198.213 110.222 197.769 109.781C197.325 109.339 196.725 109.092 196.098 109.092Z" fill="#182837"/>
<path d="M191.442 24.3845C191.44 25.152 191.665 25.9032 192.09 26.5425C192.514 27.1819 193.119 27.6808 193.828 27.9758C194.536 28.2708 195.317 28.3488 196.07 28.1997C196.823 28.0507 197.514 27.6813 198.057 27.1386C198.6 26.5958 198.969 25.9041 199.118 25.1511C199.267 24.3981 199.189 23.6179 198.894 22.9093C198.599 22.2007 198.1 21.5956 197.461 21.1709C196.822 20.7462 196.071 20.521 195.303 20.5238C194.279 20.5238 193.297 20.9306 192.573 21.6546C191.849 22.3786 191.442 23.3606 191.442 24.3845Z" fill="#FFBF6A"/>
<path d="M74.2608 177.419C74.2666 178.184 74.4993 178.93 74.9294 179.562C75.3596 180.194 75.9679 180.685 76.6771 180.971C77.3863 181.257 78.1645 181.326 78.913 181.169C79.6615 181.012 80.3466 180.637 80.8813 180.09C81.4161 179.543 81.7764 178.85 81.9166 178.098C82.0568 177.347 81.9706 176.57 81.6688 175.867C81.3671 175.165 80.8635 174.567 80.2218 174.151C79.5802 173.735 78.8294 173.519 78.0647 173.53C77.0458 173.545 76.074 173.963 75.3614 174.691C74.6489 175.42 74.2532 176.4 74.2608 177.419Z" fill="#6A8AFF"/>
<path d="M33.4114 23.1923L20.8359 20.5239L24.9805 32.6878L33.4114 23.1923Z" fill="#0DCA6F"/>
<path d="M188.363 199.306L187.241 198.426L190.08 194.849C190.493 194.324 191.072 193.956 191.723 193.806C192.374 193.656 193.056 193.734 193.657 194.026C193.954 194.164 194.287 194.204 194.609 194.14C194.93 194.076 195.223 193.912 195.445 193.671L198.667 190.066L199.732 191.017L196.495 194.622C196.079 195.104 195.512 195.432 194.887 195.553C194.261 195.674 193.613 195.581 193.046 195.289C192.736 195.143 192.385 195.106 192.05 195.183C191.716 195.26 191.417 195.447 191.201 195.715L188.363 199.306ZM188.363 194.523L187.241 193.657L190.08 190.066C190.493 189.541 191.072 189.173 191.723 189.023C192.374 188.873 193.056 188.951 193.657 189.243C193.953 189.387 194.288 189.431 194.611 189.367C194.934 189.303 195.227 189.134 195.445 188.888L198.667 185.283L199.732 186.234L196.495 189.839C196.071 190.309 195.506 190.629 194.884 190.752C194.262 190.875 193.618 190.793 193.046 190.52C192.74 190.351 192.383 190.302 192.042 190.38C191.702 190.459 191.402 190.66 191.201 190.946L188.363 194.523ZM41.9845 56.9729C41.45 56.9615 40.941 56.7426 40.5651 56.3625L37.5845 53.3819C37.3892 53.1903 37.2341 52.9617 37.1282 52.7095C37.0223 52.4572 36.9678 52.1864 36.9678 51.9129C36.9678 51.6393 37.0223 51.3685 37.1282 51.1162C37.2341 50.864 37.3892 50.6354 37.5845 50.4438L40.5651 47.449C40.9611 47.0715 41.4871 46.861 42.0341 46.861C42.5812 46.861 43.1072 47.0715 43.5032 47.449L46.498 50.4438C46.8854 50.8346 47.1028 51.3626 47.1028 51.9129C47.1028 52.4631 46.8854 52.9911 46.498 53.3819L43.5032 56.3625C43.3063 56.5641 43.0695 56.7225 42.8081 56.8276C42.5466 56.9326 42.2661 56.9821 41.9845 56.9729ZM41.9845 48.258C41.8969 48.2573 41.8102 48.2745 41.7296 48.3087C41.6491 48.3429 41.5764 48.3933 41.5161 48.4567L38.5212 51.4374C38.3981 51.5622 38.3291 51.7305 38.3291 51.9058C38.3291 52.0811 38.3981 52.2493 38.5212 52.3741L41.5161 55.3548C41.6409 55.4779 41.8092 55.5469 41.9845 55.5469C42.1598 55.5469 42.328 55.4779 42.4528 55.3548L45.4193 52.3741C45.5424 52.2493 45.6114 52.0811 45.6114 51.9058C45.6114 51.7305 45.5424 51.5622 45.4193 51.4374L42.4387 48.4567C42.3184 48.3346 42.1558 48.2634 41.9845 48.258Z" fill="#182837"/>
</g>
<defs>
<radialGradient id="paint0_radial_30_70" cx="0" cy="0" r="1" gradientUnits="userSpaceOnUse" gradientTransform="translate(110.768 109.63) scale(97.9213)">
<stop stop-color="#CF95F2"/>
<stop offset="0.33" stop-color="#CF95F2"/>
<stop offset="0.677083" stop-color="#545252"/>
</radialGradient>
<linearGradient id="paint1_linear_30_70" x1="24.1431" y1="76.631" x2="24.6541" y2="75.6658" gradientUnits="userSpaceOnUse">
<stop stop-color="#FF172D"/>
<stop offset="0.39" stop-color="#FF4A63"/>
<stop offset="0.8" stop-color="#FF7A96"/>
<stop offset="1" stop-color="#FF8DAA"/>
</linearGradient>
<linearGradient id="paint2_linear_30_70" x1="21.7589" y1="104.067" x2="168.762" y2="104.067" gradientUnits="userSpaceOnUse">
<stop stop-color="white"/>
<stop offset="1" stop-color="#E2E6F1"/>
</linearGradient>
<clipPath id="clip0_30_70">
<rect width="220" height="220" fill="white"/>
</clipPath>
</defs>
</svg>
