<svg width="155" height="155" viewBox="0 0 155 155" fill="none" xmlns="http://www.w3.org/2000/svg">
<g clip-path="url(#clip0_118_6114)">
<path d="M88.4294 146.34C126.448 140.305 152.375 104.593 146.34 66.5748C140.305 28.5566 104.593 2.62919 66.5744 8.66429C28.5562 14.6994 2.62874 50.4116 8.66384 88.4299C14.6989 126.448 50.4112 152.376 88.4294 146.34Z" fill="#545252"/>
<path d="M98.2895 46.4699C96.5646 48.4379 95.1208 50.6354 93.9995 52.9999L96.1995 65.0499C96.3435 65.8585 96.7687 66.5901 97.4001 67.1153C98.0315 67.6405 98.8283 67.9256 99.6495 67.9199C99.8643 67.9198 100.079 67.8997 100.29 67.8599L123.66 63.5099C122.99 64.5947 122.395 65.724 121.88 66.8899C120.589 69.6594 119.884 72.6655 119.81 75.7199V106.65C119.735 109.587 119.054 112.478 117.81 115.14C116.69 117.657 115.197 119.99 113.38 122.06C111.948 123.705 110.26 125.106 108.38 126.21L105.61 127.8C102.46 129.6 99.6095 129.8 97.5395 128.55L55.5195 103.91C57.5895 105.12 60.4395 104.91 63.5895 103.15L66.3695 101.56C68.2305 100.458 69.8991 99.0596 71.3095 97.4199C73.1244 95.3481 74.6177 93.0154 75.7395 90.4999C76.9823 87.8373 77.6631 84.9473 77.7395 82.0099V51.0699C77.8128 48.0164 78.5141 45.0107 79.7995 42.2399C80.9603 39.6327 82.5077 37.2155 84.3895 35.0699C85.8622 33.3619 87.6013 31.9031 89.5395 30.7499L98.5395 25.6699L140.32 50.5099L132.94 54.6799L102.51 60.3399L99.6895 44.9999C99.2095 45.4699 98.7395 45.9999 98.2895 46.4699Z" fill="#B0BED9"/>
<path d="M25.339 67.2207L14.709 73.6107V123.461L44.239 139.811H112.699L133.659 127.211L25.339 67.2207Z" fill="#A8A7A9"/>
<path d="M99.909 127.041L14.709 73.6113V123.461L21.189 127.041H99.909Z" fill="#A8A7A9"/>
<path d="M14.8168 117.258L14.623 117.607L44.1472 133.959L44.341 133.61L14.8168 117.258Z" fill="#182837"/>
<path d="M112.799 133.951L112.599 133.611L133.249 121.181L25.3394 61.4209L14.8194 67.7509L14.6094 67.4109L25.3294 60.9609L25.4294 61.0209L134.059 121.171L112.799 133.951Z" fill="#182837"/>
<path d="M17.5605 98.7412L79.4106 132.991L87.6606 128.031L25.8105 93.7812L17.5605 98.7412Z" fill="#5A5C71"/>
<path d="M98.3794 43.9013C96.6595 45.8637 95.2192 48.0544 94.0994 50.4113L96.2894 62.4813C96.4333 63.2899 96.8586 64.0215 97.49 64.5467C98.1213 65.072 98.9181 65.357 99.7394 65.3513C99.9541 65.3512 100.168 65.3311 100.379 65.2913L123.749 60.9413C123.09 62.027 122.505 63.1563 121.999 64.3213C120.709 67.0908 120.004 70.0969 119.929 73.1513V104.081C119.855 107.019 119.174 109.909 117.929 112.571C116.81 115.088 115.316 117.421 113.499 119.491C112.068 121.136 110.38 122.538 108.499 123.641L105.729 125.231C102.579 127.031 99.7294 127.231 97.6594 125.981L55.6094 101.341C57.6794 102.551 60.5294 102.341 63.6794 100.581L66.4594 99.0013C68.3204 97.8994 69.989 96.501 71.3994 94.8613C73.2143 92.7895 74.7076 90.4568 75.8294 87.9413C77.0721 85.2787 77.7529 82.3887 77.8294 79.4513V48.5113C77.9027 45.4578 78.6039 42.4521 79.8894 39.6813C81.0502 37.0741 82.5976 34.6569 84.4794 32.5113C85.9521 30.8033 87.6912 29.3445 89.6294 28.1913L98.6294 23.1113L140.409 47.9513L132.999 52.1113L102.569 57.7713L99.7794 42.4513C99.2994 42.9013 98.8294 43.3913 98.3794 43.9013Z" fill="url(#paint0_linear_118_6114)"/>
<path opacity="0.6" d="M71.3994 94.8516C69.9898 96.4948 68.3211 97.8966 66.4594 99.0016L63.6794 100.592C60.5294 102.402 57.6794 102.592 55.6094 101.352L97.7494 126.002C99.8094 127.212 102.669 127.002 105.819 125.252L108.589 123.662C110.47 122.558 112.158 121.156 113.589 119.512C115.406 117.441 116.9 115.108 118.019 112.592C119.269 109.782 118.279 108.592 111.019 117.452L71.3994 94.8516Z" fill="#B0BED9"/>
<path d="M85.1095 60.3113L77.6895 70.1413V81.0912L89.6395 65.4013L95.0495 52.5312L85.1095 60.3113Z" fill="#90909F"/>
<path d="M97.5198 123.721C96.4261 123.734 95.3489 123.455 94.3998 122.911L52.2598 98.2711L52.4698 97.9211C54.5598 99.1411 57.3498 98.9211 60.3298 97.1611L63.1198 95.5711C64.9606 94.4818 66.6094 93.0965 67.9998 91.4711C69.8051 89.4165 71.2886 87.1002 72.3998 84.6011C73.6384 81.9689 74.3193 79.109 74.3998 76.2011L74.3498 45.2611C74.4225 42.1764 75.1305 39.1398 76.4298 36.3411C77.5891 33.7225 79.1291 31.2895 80.9998 29.1211C82.4905 27.4008 84.2459 25.929 86.1998 24.7611L95.3198 19.6211L95.4198 19.6811L137.49 44.6811L129.75 49.0411L99.1198 54.7411L96.3998 39.6111C96.0298 39.9711 95.6598 40.3711 95.2798 40.7911C93.5902 42.7238 92.1706 44.8768 91.0598 47.1911L93.2398 59.1911C93.3179 59.6192 93.4799 60.0276 93.7165 60.3929C93.9531 60.7581 94.2596 61.0729 94.6184 61.3192C94.9772 61.5655 95.3811 61.7384 95.807 61.828C96.2328 61.9176 96.6722 61.922 97.0998 61.8411L120.91 57.4111L120.67 57.7911C120.007 58.8696 119.419 59.9923 118.91 61.1511C117.623 63.8931 116.921 66.873 116.85 69.9011L116.9 100.821C116.83 103.788 116.149 106.709 114.9 109.401C113.774 111.948 112.267 114.308 110.43 116.401C109.003 118.061 107.314 119.477 105.43 120.591L102.66 122.181C101.109 123.131 99.3375 123.661 97.5198 123.721ZM54.2998 99.0011L94.6098 122.571C96.6898 123.801 99.4798 123.571 102.48 121.821L105.24 120.231C107.086 119.138 108.742 117.749 110.14 116.121C111.947 114.068 113.431 111.752 114.54 109.251C115.783 106.621 116.464 103.76 116.54 100.851V69.9211C116.588 66.8421 117.269 63.8059 118.54 61.0011C119.001 59.9715 119.522 58.9698 120.1 58.0011L97.1698 62.2411C96.6886 62.3332 96.1939 62.3283 95.7147 62.2266C95.2355 62.125 94.7814 61.9287 94.3791 61.6493C93.9767 61.3699 93.6342 61.013 93.3716 60.5994C93.109 60.1859 92.9316 59.7241 92.8498 59.2411L90.6498 47.1111V47.0511C91.7955 44.6864 93.2591 42.4894 94.9998 40.5211C95.4698 39.9911 95.9998 39.5211 96.4198 39.0611L96.6898 38.8111L99.4898 54.2911L129.68 48.6711L136.74 44.6711L95.3298 20.0911L86.4198 25.0911C84.4993 26.2324 82.7769 27.6778 81.3198 29.3711C79.4549 31.503 77.921 33.9032 76.7698 36.4911C75.5067 39.2386 74.8258 42.2177 74.7698 45.2411V76.1711C74.6996 79.1381 74.0188 82.0589 72.7698 84.7511C71.6414 87.2965 70.1343 89.6566 68.2998 91.7511C66.8743 93.4099 65.1849 94.8221 63.2998 95.9311L60.5198 97.5211C58.6774 98.7129 56.4815 99.2354 54.2998 99.0011Z" fill="#182837"/>
<path d="M91.1691 83.8099C93.1691 84.9999 94.4691 87.5199 94.4691 91.0799V118.54C94.4691 122.25 95.7791 124.87 97.8891 126.1L55.7491 101.46C53.6391 100.22 52.3291 97.6099 52.3291 93.8999V66.4399C52.3291 62.8699 51.0691 60.3599 49.0391 59.1699L91.1691 83.8099Z" fill="#B0BED9"/>
<path d="M91.0998 83.7909C91.0998 83.7909 85.9898 82.701 82.7098 84.5809C80.774 85.7335 79.0353 87.1886 77.5598 88.8909C75.6906 91.0438 74.1537 93.4638 72.9998 96.0709C71.716 98.8427 71.0116 101.847 70.9298 104.901C70.9298 113.171 70.9298 128.311 70.9298 128.311L28.7598 104.891V80.261C28.8308 77.2071 29.5321 74.2009 30.8198 71.4309C31.9829 68.822 33.53 66.4018 35.4098 64.2509C36.8826 62.5458 38.6218 61.0903 40.5598 59.9409C43.8398 58.0609 46.9998 57.7309 49.1398 58.9409L91.0998 83.7909Z" fill="url(#paint1_linear_118_6114)"/>
<path d="M45.4112 99.8027L44.9453 100.688L65.4556 111.488L65.9215 110.603L45.4112 99.8027Z" fill="#5A5C71"/>
<path d="M45.421 102.803L44.9551 103.688L55.8473 109.423L56.3132 108.538L45.421 102.803Z" fill="#5A5C71"/>
<path d="M45.5929 88.4062L45.127 89.291L65.6372 100.091L66.1031 99.2063L45.5929 88.4062Z" fill="#5A5C71"/>
<path d="M45.5929 91.4023L45.127 92.2871L56.0192 98.0226L56.4851 97.1378L45.5929 91.4023Z" fill="#5A5C71"/>
<path d="M49.5577 78.6269L49.0918 79.5117L69.602 90.3118L70.068 89.427L49.5577 78.6269Z" fill="#5A5C71"/>
<path d="M48.048 80.7285L47.582 81.6133L58.4742 87.3488L58.9402 86.464L48.048 80.7285Z" fill="#5A5C71"/>
<path d="M56.6358 70.3046L56.1699 71.1895L76.6802 81.9896L77.1461 81.1047L56.6358 70.3046Z" fill="#5A5C71"/>
<path d="M54.7237 72.3222L54.2578 73.207L65.15 78.9425L65.6159 78.0577L54.7237 72.3222Z" fill="#5A5C71"/>
<path d="M64.8498 125.251L22.2598 101.601V76.8506C22.3315 73.769 23.0397 70.7355 24.3398 67.9406C25.5217 65.3106 27.0927 62.8733 28.9998 60.7106C30.4861 58.9886 32.2423 57.5194 34.1998 56.3606C37.5398 54.4406 40.7398 54.1006 42.9798 55.3606L85.9998 80.8306L84.8098 80.5806C84.7598 80.5806 79.7298 79.5806 76.5598 81.3506C74.6414 82.4908 72.9193 83.9326 71.4598 85.6206C69.5925 87.7565 68.0555 90.1598 66.8998 92.7506C65.6448 95.5009 64.9643 98.4783 64.8998 101.501C64.8998 109.671 64.8998 124.751 64.8998 124.901L64.8498 125.251ZM22.6598 101.371L64.4498 124.561C64.4498 122.271 64.3798 108.981 64.4498 101.491C64.5301 98.409 65.2414 95.3766 66.5398 92.5807C67.7142 89.9557 69.2711 87.5192 71.1598 85.3506C72.6328 83.6346 74.3716 82.166 76.3098 81.0006C78.7398 79.6106 82.0998 79.8006 83.7898 80.0006L42.7898 55.7306C40.7098 54.5106 37.5798 54.8706 34.4098 56.7306C32.4737 57.8622 30.7371 59.3049 29.2698 61.0006C27.4037 63.1374 25.8668 65.5405 24.7098 68.1306C23.4502 70.8758 22.7694 73.8509 22.7098 76.8706L22.6598 101.371Z" fill="#182837"/>
<path d="M40.9996 106.491C40.9158 106.492 40.833 106.472 40.7596 106.431L33.4796 102.431C33.4014 102.387 33.3362 102.323 33.2905 102.246C33.2449 102.169 33.2204 102.081 33.2196 101.991V94.4812C33.2062 94.385 33.2211 94.2869 33.2625 94.199C33.3039 94.1112 33.3701 94.0372 33.4528 93.9863C33.5355 93.9354 33.6313 93.9097 33.7284 93.9123C33.8255 93.915 33.9198 93.9458 33.9996 94.0012L41.2796 98.0012C41.3593 98.0435 41.4257 98.107 41.4715 98.1846C41.5174 98.2622 41.541 98.351 41.5396 98.4412V106.001C41.5391 106.088 41.5158 106.174 41.4719 106.249C41.428 106.325 41.3652 106.388 41.2896 106.431C41.2025 106.483 41.1003 106.504 40.9996 106.491ZM34.2196 101.661L40.4996 105.141V98.7012L34.2196 95.3112V101.661ZM41.0496 94.3612C40.966 94.3604 40.8838 94.3398 40.8096 94.3012L33.5296 90.3712C33.45 90.3289 33.3836 90.2654 33.3377 90.1878C33.2918 90.1101 33.2683 90.0213 33.2696 89.9312V81.9312C33.272 81.8465 33.2958 81.7639 33.3388 81.6909C33.3819 81.618 33.4427 81.5572 33.5157 81.5142C33.5886 81.4712 33.6713 81.4475 33.756 81.4452C33.8406 81.4429 33.9245 81.4622 33.9996 81.5012L41.2796 85.4312C41.3578 85.4752 41.4231 85.539 41.4687 85.6163C41.5144 85.6935 41.5388 85.7815 41.5396 85.8712V93.8712C41.5412 93.9589 41.5187 94.0453 41.4747 94.1211C41.4306 94.1969 41.3666 94.2592 41.2896 94.3012C41.2172 94.3443 41.1338 94.3651 41.0496 94.3612ZM34.2696 89.6312L40.5496 93.0012V86.1712L34.2696 82.7812V89.6312ZM41.6396 82.1412C41.559 82.1417 41.4797 82.121 41.4096 82.0812L33.8296 78.0012C33.7345 77.9511 33.6585 77.8711 33.6133 77.7735C33.5681 77.6759 33.5563 77.5661 33.5796 77.4612C33.8751 76.0194 34.3278 74.6143 34.9296 73.2712C35.3093 72.4326 35.7332 71.6148 36.1996 70.8212C36.2663 70.7103 36.3734 70.6296 36.4983 70.5961C36.6233 70.5625 36.7564 70.5787 36.8696 70.6412L44.6596 74.8412C44.7208 74.8733 44.7746 74.9177 44.8177 74.9717C44.8608 75.0256 44.8923 75.0879 44.9101 75.1546C44.928 75.2213 44.9318 75.2909 44.9214 75.3592C44.911 75.4275 44.8865 75.4928 44.8496 75.5512C44.2642 76.4934 43.7462 77.4758 43.2996 78.4912C42.8202 79.554 42.4289 80.6543 42.1296 81.7812C42.1096 81.8546 42.0731 81.9225 42.0228 81.9797C41.9726 82.0369 41.9099 82.0819 41.8396 82.1112C41.7761 82.1362 41.7077 82.1465 41.6396 82.1412ZM34.6396 77.2912L41.3396 80.9112C41.6283 79.9416 41.9825 78.9928 42.3996 78.0712C42.7901 77.1735 43.2377 76.3017 43.7396 75.4612L36.8296 71.7412C36.4696 72.3812 36.1396 73.0312 35.8296 73.6712C35.3126 74.8358 34.9106 76.0483 34.6296 77.2912H34.6396ZM46.8096 72.5112C46.7259 72.5116 46.6433 72.491 46.5696 72.4512L38.7296 68.2212C38.6636 68.1863 38.6066 68.1365 38.5632 68.0758C38.5198 68.015 38.4912 67.9449 38.4796 67.8712C38.4652 67.7974 38.4676 67.7213 38.4867 67.6486C38.5057 67.5759 38.5409 67.5084 38.5896 67.4512L38.7896 67.2212C39.9382 65.8925 41.2879 64.752 42.7896 63.8412C43.8064 63.2051 44.9634 62.8274 46.1596 62.7412C46.3916 62.7271 46.6239 62.7646 46.8396 62.8512L53.4596 66.8512C53.5403 66.901 53.6055 66.9723 53.6479 67.0571C53.6903 67.1418 53.7082 67.2368 53.6996 67.3312C53.6912 67.4256 53.6555 67.5156 53.5969 67.5901C53.5383 67.6647 53.4594 67.7206 53.3696 67.7512C52.7455 67.9803 52.1431 68.2647 51.5696 68.6012C49.9665 69.5578 48.528 70.7667 47.3096 72.1812L47.1696 72.3412C47.1245 72.3927 47.0692 72.4343 47.0073 72.4636C46.9454 72.4928 46.8781 72.509 46.8096 72.5112ZM39.7596 67.6412L46.6996 71.3812C47.959 69.9422 49.4371 68.7105 51.0796 67.7312C51.4038 67.5378 51.7376 67.3609 52.0796 67.2012L46.3996 63.7412H46.1696C45.1439 63.8415 44.1568 64.1842 43.2896 64.7412C41.9756 65.5273 40.7859 66.5047 39.7596 67.6412Z" fill="#B0BED9"/>
<path d="M44.9402 84.0016C43.3802 84.8616 41.8702 85.7516 40.3502 86.6416L37.8202 88.1816C37.6853 88.2715 37.5307 88.3274 37.3695 88.3443C37.2083 88.3612 37.0454 88.3386 36.8949 88.2786C36.7443 88.2186 36.6106 88.1229 36.5053 87.9997C36.4 87.8766 36.3261 87.7296 36.2902 87.5716C36.0702 86.7616 35.8302 85.9616 35.5602 85.1716C35.5602 85.0916 35.3902 85.0516 35.2302 85.0916C35.0702 85.1316 34.9202 85.2616 34.9302 85.3616C35.0797 86.8425 35.3066 88.3145 35.6102 89.7716C35.6233 89.8191 35.6513 89.8612 35.6902 89.8916C35.8155 89.952 35.9545 89.9783 36.0932 89.9678C36.2319 89.9573 36.3654 89.9103 36.4802 89.8316C38.0102 88.9316 39.4802 87.9916 40.9502 87.0816C42.4202 86.1716 43.8602 85.2116 45.2802 84.2516C45.4002 84.1716 45.4402 84.0516 45.3702 83.9916C45.3046 83.9533 45.2297 83.9339 45.1537 83.9357C45.0778 83.9375 45.0039 83.9603 44.9402 84.0016ZM54.2802 67.4316C52.5102 67.5416 50.7602 67.7116 49.0002 67.8716L46.0602 68.1816C45.9026 68.2036 45.7421 68.1876 45.5919 68.1351C45.4417 68.0826 45.3062 67.995 45.1967 67.8796C45.0872 67.7642 45.0068 67.6244 44.9622 67.4717C44.9175 67.319 44.91 67.1578 44.9402 67.0016C45.0802 66.1816 45.2002 65.3516 45.2902 64.5216C45.2902 64.4316 45.1902 64.3416 45.0302 64.3116C44.8702 64.2816 44.6802 64.3116 44.6402 64.4316C44.1415 65.833 43.7241 67.2621 43.3902 68.7116C43.3808 68.7338 43.376 68.7576 43.376 68.7816C43.376 68.8056 43.3808 68.8294 43.3902 68.8516C43.4762 68.9618 43.5903 69.0469 43.7205 69.0979C43.8506 69.1489 43.9921 69.164 44.1302 69.1416C45.8902 68.9616 47.6102 68.7416 49.3402 68.5416C51.0702 68.3416 52.7702 68.0916 54.4602 67.8216C54.6102 67.8216 54.7002 67.7116 54.6602 67.6116C54.6175 67.5516 54.5602 67.5035 54.4937 67.472C54.4271 67.4405 54.3536 67.4266 54.2802 67.4316Z" fill="#182837"/>
<path d="M95.1495 53.4499C92.2095 52.3899 83.3595 49.7699 83.3595 49.7699L35.4095 18.2299C35.4095 18.2299 33.4095 15.2299 33.8295 14.5099C34.2495 13.7899 38.1395 14.3799 38.1395 14.3799L86.9995 43.9999C86.9995 43.9999 93.1995 50.8199 95.4295 52.9999C95.4664 53.0451 95.4883 53.1008 95.4921 53.1591C95.4959 53.2174 95.4813 53.2755 95.4504 53.3251C95.4195 53.3747 95.3739 53.4134 95.32 53.4358C95.266 53.4582 95.2064 53.4631 95.1495 53.4499Z" fill="url(#paint2_linear_118_6114)"/>
<path d="M95.4406 53C93.2106 50.79 87.0005 44 87.0005 44C86.823 45.1676 86.403 46.2852 85.7674 47.2806C85.1319 48.2761 84.295 49.1275 83.3105 49.78C83.3105 49.78 92.1605 52.4 95.1005 53.46C95.1615 53.5051 95.238 53.5241 95.313 53.5128C95.388 53.5016 95.4555 53.461 95.5005 53.4C95.5456 53.339 95.5646 53.2626 95.5534 53.1876C95.5421 53.1126 95.5016 53.0451 95.4406 53Z" fill="url(#paint3_linear_118_6114)"/>
<path d="M95.439 53.001C94.849 52.411 93.969 51.501 92.999 50.4711C92.7774 51.1883 92.3942 51.8451 91.879 52.391C93.189 52.811 94.379 53.1911 95.149 53.4711C95.2104 53.496 95.2785 53.4984 95.3415 53.4779C95.4044 53.4573 95.4581 53.4151 95.4928 53.3587C95.5276 53.3024 95.5413 53.2355 95.5314 53.17C95.5216 53.1045 95.4888 53.0447 95.439 53.001ZM38.099 14.381C37.679 14.311 34.259 13.761 33.829 14.511C33.399 15.261 34.939 17.511 35.319 18.091C36.529 18.141 38.619 16.081 38.099 14.381ZM57.899 33.001C59.5997 31.9728 60.8334 30.323 61.339 28.401L62.509 29.061C62.4583 30.0951 62.1184 31.0941 61.5279 31.9444C60.9375 32.7948 60.1202 33.4623 59.169 33.871L57.899 33.001ZM78.739 46.7211C79.7689 46.1995 80.6794 45.4698 81.4126 44.5781C82.1459 43.6865 82.6861 42.6523 82.999 41.541L83.999 42.231C83.999 42.231 84.069 45.301 79.999 47.571L78.739 46.7211Z" fill="#182837"/>
<path d="M53.8598 31.5113C53.0298 30.8261 52.1471 30.2075 51.2198 29.6613C49.3698 28.5513 47.4298 27.5513 45.4698 26.5513C43.5098 25.5513 41.5598 24.5513 39.6598 23.3413C38.6905 22.75 37.7709 22.0812 36.9098 21.3413C36.4598 20.939 36.0542 20.4898 35.6998 20.0013C35.3039 19.4787 35.0646 18.8545 35.0098 18.2013C35.0104 18.0938 35.0495 17.9901 35.12 17.9089C35.1904 17.8277 35.2877 17.7744 35.394 17.7587C35.5003 17.743 35.6088 17.7659 35.6997 17.8232C35.7907 17.8806 35.8581 17.9685 35.8898 18.0713V18.1213C36.2728 19.0108 36.9273 19.7563 37.7598 20.2513C38.6338 20.8839 39.5418 21.4681 40.4798 22.0013L46.2498 25.1413C48.2095 26.2098 50.0909 27.4162 51.8798 28.7513C52.781 29.4147 53.612 30.1687 54.3598 31.0013C55.0798 31.8913 54.6698 32.2113 53.8598 31.5113Z" fill="#182837"/>
<path d="M42.3186 17.8247L42.1133 18.168L58.5984 28.0302L58.8038 27.687L42.3186 17.8247Z" fill="#EEF0F2"/>
<path d="M63.3126 30.0657L63.0996 30.4043L81.4003 41.9155L81.6133 41.5769L63.3126 30.0657Z" fill="#EEF0F2"/>
<path d="M116.84 135.561C116.84 136.811 114.54 137.831 111.7 137.831C108.86 137.831 106.57 136.831 106.57 135.561C106.57 134.291 108.86 133.301 111.7 133.301C114.54 133.301 116.84 134.311 116.84 135.561Z" fill="#FFB044"/>
<path d="M115.73 133.711C115.73 134.502 115.496 135.275 115.056 135.933C114.617 136.591 113.992 137.104 113.261 137.406C112.53 137.709 111.726 137.788 110.95 137.634C110.174 137.48 109.461 137.099 108.902 136.539C108.343 135.98 107.962 135.267 107.807 134.491C107.653 133.715 107.732 132.911 108.035 132.18C108.338 131.449 108.85 130.825 109.508 130.385C110.166 129.946 110.939 129.711 111.73 129.711C112.791 129.711 113.809 130.132 114.559 130.883C115.309 131.633 115.73 132.65 115.73 133.711Z" fill="#182837"/>
<path d="M114.879 133.141C114.629 133.541 113.879 133.051 112.879 132.441C111.879 131.831 111.169 131.331 111.429 130.941C111.689 130.551 112.849 130.411 113.799 131.021C114.749 131.631 115.129 132.751 114.879 133.141Z" fill="#182837"/>
<path d="M133.15 65.1106C133.15 65.6486 133.31 66.1745 133.609 66.6218C133.908 67.0691 134.332 67.4177 134.829 67.6236C135.327 67.8295 135.873 67.8833 136.401 67.7784C136.929 67.6734 137.413 67.4144 137.794 67.034C138.174 66.6536 138.433 66.1689 138.538 65.6413C138.643 65.1136 138.589 64.5667 138.383 64.0697C138.177 63.5727 137.829 63.1479 137.382 62.849C136.934 62.5502 136.408 62.3906 135.87 62.3906C135.149 62.3906 134.457 62.6772 133.947 63.1873C133.437 63.6974 133.15 64.3892 133.15 65.1106Z" fill="#70D994"/>
<path d="M45.5498 47.4113L45.0098 38.3613L53.0598 42.5313L45.5498 47.4113Z" fill="#6A8AFF"/>
<path d="M15.3505 51.0803L14.5605 50.4603L17.5705 46.6303L19.7805 47.7103L22.5905 44.5703L23.3405 45.2403L20.0205 48.9403L17.8605 47.8803L15.3505 51.0803Z" fill="#182837"/>
<path d="M15.3505 47.7112L14.5605 47.1012L17.5705 43.2612L19.7805 44.3412L22.5905 41.2012L23.3405 41.8712L20.0205 45.5712L17.8605 44.5112L15.3505 47.7112Z" fill="#182837"/>
<path d="M137.11 20.8815C136.879 20.8808 136.651 20.8346 136.438 20.7453C136.225 20.6561 136.032 20.5256 135.87 20.3615L134.18 18.6715C134.015 18.5096 133.885 18.3166 133.796 18.1037C133.706 17.8908 133.661 17.6623 133.661 17.4315C133.661 17.2007 133.706 16.9722 133.796 16.7593C133.885 16.5464 134.015 16.3534 134.18 16.1915L135.87 14.4915C136.032 14.327 136.225 14.1964 136.438 14.1072C136.651 14.0181 136.879 13.9721 137.11 13.9721C137.341 13.9721 137.569 14.0181 137.782 14.1072C137.995 14.1964 138.188 14.327 138.35 14.4915L140.05 16.1915C140.214 16.3534 140.345 16.5464 140.434 16.7593C140.523 16.9722 140.569 17.2007 140.569 17.4315C140.569 17.6623 140.523 17.8908 140.434 18.1037C140.345 18.3166 140.214 18.5096 140.05 18.6715L138.35 20.3615C138.189 20.527 137.996 20.6583 137.783 20.7477C137.57 20.837 137.341 20.8825 137.11 20.8815ZM137.11 14.9715C136.912 14.9758 136.723 15.0543 136.58 15.1915L134.88 16.8915C134.741 17.035 134.664 17.2269 134.664 17.4265C134.664 17.6261 134.741 17.8179 134.88 17.9615L136.58 19.6615C136.723 19.8002 136.915 19.8777 137.115 19.8777C137.315 19.8777 137.506 19.8002 137.65 19.6615L139.35 17.9615C139.489 17.8179 139.566 17.6261 139.566 17.4265C139.566 17.2269 139.489 17.035 139.35 16.8915L137.65 15.1915C137.5 15.0629 137.307 14.9951 137.11 15.0015V14.9715ZM71.1299 22.4215L70.4199 21.7115L72.9999 19.1615C73.2955 18.8637 73.4613 18.4611 73.4613 18.0415C73.4613 17.6219 73.2955 17.2193 72.9999 16.9215L70.5499 14.4815L71.2599 13.7715L73.7099 16.2215C74.1911 16.705 74.4613 17.3593 74.4613 18.0415C74.4613 18.7236 74.1911 19.378 73.7099 19.8615L71.1299 22.4215Z" fill="#182837"/>
<path d="M131.62 105.54C131.48 105.54 131.342 105.51 131.215 105.454C131.087 105.397 130.973 105.314 130.88 105.21C130.79 105.113 130.721 104.999 130.676 104.874C130.632 104.75 130.612 104.618 130.618 104.486C130.625 104.354 130.658 104.224 130.714 104.105C130.771 103.985 130.851 103.879 130.95 103.79L134.8 100.33C134.982 100.173 135.214 100.086 135.455 100.086C135.695 100.086 135.928 100.173 136.11 100.33L140.2 103.74C140.301 103.824 140.385 103.927 140.446 104.044C140.507 104.16 140.545 104.287 140.557 104.418C140.569 104.549 140.555 104.681 140.516 104.807C140.477 104.933 140.414 105.049 140.33 105.15C140.246 105.252 140.143 105.335 140.026 105.397C139.91 105.458 139.783 105.496 139.652 105.508C139.521 105.52 139.389 105.506 139.263 105.467C139.137 105.428 139.021 105.365 138.92 105.28L135.5 102.42L132.29 105.31C132.102 105.466 131.864 105.548 131.62 105.54Z" fill="#5A5C71"/>
<path d="M131.719 100.72C131.578 100.721 131.438 100.692 131.309 100.635C131.179 100.578 131.064 100.495 130.969 100.39C130.88 100.292 130.812 100.177 130.768 100.052C130.724 99.9276 130.705 99.7954 130.713 99.6633C130.72 99.5312 130.754 99.4019 130.811 99.2829C130.869 99.1639 130.95 99.0576 131.049 98.97L134.899 95.51C135.081 95.3524 135.313 95.2656 135.554 95.2656C135.795 95.2656 136.027 95.3524 136.209 95.51L140.289 98.92C140.4 99.0003 140.494 99.1028 140.564 99.2209C140.634 99.3391 140.679 99.4704 140.696 99.6067C140.713 99.7431 140.702 99.8814 140.664 100.013C140.625 100.145 140.559 100.267 140.471 100.373C140.383 100.478 140.274 100.564 140.151 100.626C140.028 100.687 139.894 100.723 139.757 100.73C139.62 100.737 139.482 100.716 139.354 100.668C139.225 100.62 139.108 100.545 139.009 100.45L135.589 97.6L132.389 100.49C132.201 100.646 131.963 100.728 131.719 100.72Z" fill="#5A5C71"/>
<path d="M131.809 95.8999C131.606 95.9017 131.406 95.8411 131.238 95.7263C131.069 95.6114 130.94 95.4479 130.867 95.2575C130.794 95.0671 130.781 94.859 130.83 94.661C130.878 94.4631 130.986 94.2847 131.139 94.1499L134.999 90.6799C135.181 90.5223 135.414 90.4355 135.654 90.4355C135.895 90.4355 136.128 90.5223 136.309 90.6799L140.399 94.0899C140.5 94.1746 140.583 94.2782 140.643 94.3949C140.704 94.5116 140.741 94.6391 140.752 94.77C140.763 94.901 140.748 95.0329 140.708 95.1581C140.668 95.2833 140.604 95.3995 140.519 95.4999C140.349 95.7 140.106 95.8248 139.844 95.8472C139.582 95.8697 139.322 95.788 139.119 95.6199L135.689 92.7699L132.489 95.6599C132.3 95.8217 132.058 95.9073 131.809 95.8999Z" fill="#5A5C71"/>
<path d="M131.9 91.0716C131.698 91.071 131.501 91.0096 131.335 90.8952C131.169 90.7809 131.042 90.6191 130.969 90.4309C130.897 90.2427 130.883 90.0371 130.929 89.8409C130.976 89.6447 131.081 89.4672 131.23 89.3316L135.08 85.8616C135.262 85.7039 135.494 85.6172 135.735 85.6172C135.975 85.6172 136.208 85.7039 136.39 85.8616L140.48 89.2716C140.591 89.3519 140.685 89.4543 140.755 89.5725C140.825 89.6907 140.87 89.822 140.887 89.9583C140.904 90.0946 140.893 90.233 140.854 90.3648C140.816 90.4966 140.75 90.619 140.662 90.7244C140.574 90.8298 140.465 90.9158 140.342 90.9772C140.219 91.0387 140.085 91.0741 139.948 91.0813C139.81 91.0886 139.673 91.0675 139.545 91.0193C139.416 90.9712 139.298 90.8971 139.2 90.8016L135.78 87.9516L132.57 90.8416C132.382 90.9974 132.144 91.0792 131.9 91.0716Z" fill="#5A5C71"/>
<path d="M44.159 139.761L14.709 123.461V139.811L44.159 139.761Z" fill="#5A5C71"/>
</g>
<defs>
<linearGradient id="paint0_linear_118_6114" x1="119.159" y1="33.0513" x2="84.4394" y2="106.841" gradientUnits="userSpaceOnUse">
<stop stop-color="white"/>
<stop offset="0.37" stop-color="#C7CFE4"/>
<stop offset="1" stop-color="white"/>
</linearGradient>
<linearGradient id="paint1_linear_118_6114" x1="66.2598" y1="69.0909" x2="36.4598" y2="128.701" gradientUnits="userSpaceOnUse">
<stop stop-color="white"/>
<stop offset="0.37" stop-color="#C7CFE4"/>
<stop offset="1" stop-color="white"/>
</linearGradient>
<linearGradient id="paint2_linear_118_6114" x1="33.1469" y1="32.6721" x2="96.1681" y2="34.8838" gradientUnits="userSpaceOnUse">
<stop stop-color="#FF5F82"/>
<stop offset="0.3" stop-color="#FF5C7C"/>
<stop offset="0.71" stop-color="#FF5269"/>
<stop offset="1" stop-color="#FF4959"/>
</linearGradient>
<linearGradient id="paint3_linear_118_6114" x1="97.1186" y1="61.2596" x2="99.0741" y2="58.984" gradientUnits="userSpaceOnUse">
<stop stop-color="#C7CFE4"/>
<stop offset="1" stop-color="#E2E6F1"/>
</linearGradient>
<clipPath id="clip0_118_6114">
<rect width="155" height="155" fill="white"/>
</clipPath>
</defs>
</svg>
